<svg width="45" height="45" viewBox="0 0 45 45" fill="none" xmlns="http://www.w3.org/2000/svg">
<g clip-path="url(#clip0_2032_221)">
<path d="M40.6055 0H4.39453C1.9675 0 0 1.9675 0 4.39453V40.6055C0 43.0325 1.9675 45 4.39453 45H40.6055C43.0325 45 45 43.0325 45 40.6055V4.39453C45 1.9675 43.0325 0 40.6055 0Z" fill="#3178C6"/>
<path d="M40.6055 0H4.39453C1.9675 0 0 1.9675 0 4.39453V40.6055C0 43.0325 1.9675 45 4.39453 45H40.6055C43.0325 45 45 43.0325 45 40.6055V4.39453C45 1.9675 43.0325 0 40.6055 0Z" fill="#3178C6"/>
<path fill-rule="evenodd" clip-rule="evenodd" d="M27.856 35.8088V40.2086C28.5712 40.5753 29.4172 40.8502 30.3938 41.0336C31.3704 41.2169 32.3997 41.3086 33.4818 41.3086C34.5364 41.3086 35.5382 41.2078 36.4874 41.0061C37.4365 40.8045 38.2687 40.4721 38.984 40.0092C39.6992 39.5464 40.2655 38.9413 40.6827 38.1943C41.0999 37.4472 41.3086 36.5237 41.3086 35.4238C41.3086 34.6263 41.1894 33.9274 40.951 33.327C40.7125 32.7266 40.3687 32.1927 39.9193 31.7252C39.47 31.2577 38.9312 30.8383 38.3031 30.467C37.6749 30.0958 36.9665 29.7452 36.1779 29.4152C35.6002 29.1769 35.0821 28.9455 34.6235 28.7209C34.165 28.4962 33.7753 28.2671 33.4543 28.0334C33.1334 27.7996 32.8858 27.5521 32.7116 27.2909C32.5374 27.0296 32.4502 26.734 32.4502 26.404C32.4502 26.1016 32.5281 25.8289 32.6841 25.5859C32.84 25.343 33.0601 25.1345 33.3443 24.9603C33.6286 24.7862 33.977 24.6509 34.3897 24.5547C34.8024 24.4585 35.2608 24.4104 35.7652 24.4104C36.132 24.4104 36.5194 24.4379 36.9275 24.4928C37.3356 24.5479 37.7459 24.6327 38.1587 24.7472C38.5713 24.8618 38.9725 25.0062 39.3623 25.1803C39.752 25.3545 40.1119 25.5561 40.442 25.7854V21.6742C39.7726 21.4175 39.0413 21.2273 38.2481 21.1036C37.4549 20.9798 36.5447 20.918 35.5177 20.918C34.4722 20.918 33.4818 21.0303 32.5465 21.2549C31.6112 21.4794 30.7882 21.83 30.0774 22.3066C29.3667 22.7834 28.8051 23.3906 28.3925 24.1285C27.9798 24.8664 27.7734 25.7486 27.7734 26.7753C27.7734 28.0861 28.1517 29.2044 28.9083 30.1302C29.6648 31.056 30.8133 31.8397 32.3539 32.4814C32.9592 32.7289 33.5232 32.9717 34.0458 33.2101C34.5685 33.4484 35.0202 33.6959 35.4007 33.9526C35.7812 34.2092 36.0816 34.4888 36.3017 34.7913C36.5218 35.0938 36.6318 35.4375 36.6318 35.8225C36.6318 36.1067 36.563 36.3702 36.4255 36.6131C36.2879 36.8561 36.0793 37.0668 35.7996 37.2456C35.5199 37.4244 35.1715 37.5641 34.7542 37.6649C34.3369 37.7658 33.8487 37.8162 33.2893 37.8162C32.3356 37.8162 31.3911 37.6489 30.4557 37.3143C29.5204 36.9798 28.6537 36.478 27.856 35.8088ZM20.4592 24.9681H26.1035V21.3574H10.3711V24.9681H15.9878V41.0449H20.4592V24.9681Z" fill="white"/>
</g>
<defs>
<clipPath id="clip0_2032_221">
<rect width="45" height="45" fill="white"/>
</clipPath>
</defs>
</svg>
