<svg width="108" height="45" viewBox="0 0 108 45" fill="none" xmlns="http://www.w3.org/2000/svg">
<g clip-path="url(#clip0_2031_114)">
<path d="M64.665 15.3169C62.3189 15.3169 60.5717 16.4769 60.5717 19.2686C60.5717 21.372 61.7232 22.8322 64.5388 22.8322C66.9251 22.8322 68.5458 21.4164 68.5458 19.1818C68.5458 16.6494 67.0954 15.317 64.665 15.317V15.3169ZM59.9728 35.0283C59.4176 35.7144 58.8644 36.4433 58.8644 37.3036C58.8644 39.0198 61.038 39.5364 64.0239 39.5364C66.4974 39.5364 69.8666 39.3619 69.8666 37.0464C69.8666 35.6701 68.2457 35.5849 66.1975 35.4556L59.9726 35.0283H59.9728ZM72.5955 15.4467C73.3619 16.4346 74.1733 17.809 74.1733 19.7841C74.1733 24.5501 70.463 27.3411 65.0911 27.3411C63.725 27.3411 62.4882 27.1697 61.7214 26.9554L60.3136 29.2308L64.4923 29.4878C71.8705 29.9612 76.219 30.1763 76.219 35.8852C76.219 40.8245 71.9129 43.6138 64.4923 43.6138C56.7739 43.6138 53.8315 41.6384 53.8315 38.2467C53.8315 36.3136 54.6846 35.2854 56.1772 33.8663C54.7694 33.2671 54.301 32.1942 54.301 31.0344C54.301 30.0891 54.7694 29.2305 55.5382 28.4141C56.3056 27.599 57.1582 26.7821 58.1818 25.8377C56.0924 24.8074 54.5142 22.5745 54.5142 19.3966C54.5142 14.4592 57.7555 11.0684 64.2789 11.0684C66.1129 11.0684 67.2223 11.2383 68.2032 11.4976H76.5194V15.1464L72.5955 15.4471" fill="#413000"/>
<path d="M84.0258 7.64387C81.5945 7.64387 80.1877 6.22563 80.1877 3.77721C80.1877 1.33188 81.5945 -0.000244141 84.0258 -0.000244141C86.4994 -0.000244141 87.9066 1.33188 87.9066 3.77721C87.9066 6.22559 86.4994 7.64387 84.0258 7.64387ZM78.5237 33.4479V30.0575L80.6993 29.7578C81.2967 29.6707 81.3814 29.5429 81.3814 28.8973V16.2735C81.3814 15.8022 81.254 15.5003 80.8263 15.3725L78.5237 14.5559L78.9927 11.0791H87.8209V28.8976C87.8209 29.5859 87.862 29.671 88.5034 29.7581L90.6785 30.0578V33.4482H78.5234" fill="#413000"/>
<path d="M107.542 31.7837C105.707 32.6843 103.021 33.5003 100.59 33.5003C95.5151 33.5003 93.5966 31.4412 93.5966 26.5871V15.3381C93.5966 15.081 93.5966 14.9085 93.2541 14.9085H90.2695V11.0871C94.0234 10.6566 95.5149 8.76689 95.9841 4.08667H100.036V10.186C100.036 10.4855 100.036 10.6152 100.377 10.6152H106.39V14.9084H100.036V25.1702C100.036 27.704 100.634 28.6908 102.935 28.6908C104.131 28.6908 105.366 28.3911 106.39 28.0043L107.542 31.784" fill="#413000"/>
<path d="M44.3557 20.5155L24.8557 0.883458C23.7337 -0.247285 21.9125 -0.247285 20.7891 0.883458L16.7401 4.96073L21.8761 10.1321C23.0701 9.72621 24.4386 9.99836 25.3899 10.9564C26.3462 11.9204 26.6145 13.3102 26.2013 14.5164L31.1515 19.5007C32.3491 19.0852 33.7308 19.3537 34.6871 20.3182C36.024 21.664 36.024 23.8447 34.6871 25.1908C33.3499 26.5374 31.1842 26.5374 29.8463 25.1908C28.841 24.1778 28.5924 22.6906 29.1015 21.4435L24.485 16.795L24.4846 29.0273C24.8105 29.1897 25.1181 29.4066 25.3897 29.6789C26.7263 31.0245 26.7263 33.2048 25.3897 34.5527C24.0528 35.8982 21.8861 35.8982 20.5505 34.5527C19.2138 33.2049 19.2138 31.0246 20.5505 29.6789C20.8809 29.3468 21.2631 29.0955 21.671 28.9271V16.5812C21.2629 16.4134 20.8811 16.164 20.5503 15.8293C19.5378 14.8105 19.2939 13.3142 19.8132 12.0623L14.7501 6.96349L1.3806 20.4248C0.257248 21.5564 0.257248 23.3902 1.3806 24.521L20.8794 44.1531C22.002 45.2839 23.8226 45.2839 24.9468 44.1531L44.3554 24.6138C45.4784 23.4825 45.4784 21.6481 44.3554 20.5172" fill="#F05133"/>
</g>
<defs>
<clipPath id="clip0_2031_114">
<rect width="107" height="45" fill="white" transform="translate(0.538086)"/>
</clipPath>
</defs>
</svg>
