<svg width="146" height="45" viewBox="0 0 146 45" fill="none" xmlns="http://www.w3.org/2000/svg">
<g clip-path="url(#clip0_2032_179)">
<path d="M34.8626 18.7993L43.8953 4.3479H22.169L19.1665 9.16398L34.8626 18.7993Z" fill="url(#paint0_linear_2032_179)"/>
<path opacity="0.15" d="M19.1685 9.16388L20.7058 6.69141L34.8645 18.7992L19.1685 9.16388Z" fill="black"/>
<path d="M39.6403 45.0001V23.2746L34.9535 20.3452L25.0977 35.9129L39.6403 45.0001Z" fill="url(#paint1_linear_2032_179)"/>
<path opacity="0.15" d="M25.0977 35.9124L27.5325 37.4325L34.954 20.3452L25.0977 35.9124Z" fill="black"/>
<path d="M4.64648 0V21.7259L9.67401 24.6548L34.8588 18.7965L4.64648 0Z" fill="url(#paint2_linear_2032_179)"/>
<path d="M9.56847 26.3115L0.536621 40.5193H22.2625L34.9561 20.3452L9.56847 26.3115Z" fill="url(#paint3_linear_2032_179)"/>
<path d="M48.0512 32.7379H50.8649L52.3038 15.0018H49.4261V12.5234H55.8203L61.607 26.3646C61.9586 27.2984 62.1188 28.0062 62.1188 28.0062H62.1828C62.1828 28.0062 62.3429 27.2979 62.6946 26.3646L68.4808 12.5234H74.8745V15.0023H71.9973L73.4362 32.7384H76.2494V35.2489H67.5533V32.7379H70.2708L69.2476 19.1536C69.2159 18.4453 69.3438 17.2873 69.3438 17.2873H69.2476C69.2476 17.2873 68.9922 18.3818 68.7362 19.0252L63.5576 30.9674H60.7444L55.5644 19.0256C55.3089 18.3822 55.053 17.2878 55.053 17.2878H54.9568C54.9568 17.2878 55.0848 18.4462 55.053 19.1541L54.0298 32.7384H56.7469V35.2489H48.0508V32.7379H48.0512Z" fill="black"/>
<path d="M89.6153 12.1372C96.1379 12.1372 101.22 17.1906 101.22 23.7246C101.22 30.4201 96.1379 35.635 89.6153 35.635C83.0618 35.635 78.0103 30.4201 78.0103 23.7246C78.0103 17.1906 83.0618 12.1372 89.6153 12.1372ZM89.6153 32.7705C94.1873 32.7705 97.8958 28.8428 97.8958 23.7246C97.8958 18.7678 94.1873 14.9695 89.6153 14.9695C85.0116 14.9695 81.3036 18.7678 81.3036 23.7246C81.3036 28.8424 85.012 32.7705 89.6153 32.7705Z" fill="black"/>
<path d="M103.35 32.7379H106.163V15.0018H103.35V12.5234H112.973C114.859 12.5234 116.266 12.6201 117.768 13.0707C122.085 14.4224 124.898 18.35 124.898 23.8862C124.898 29.3906 122.181 33.2211 117.768 34.6373C116.298 35.1196 114.795 35.2489 113.005 35.2489H103.35V32.7379ZM112.813 32.609C114.284 32.609 115.499 32.4802 116.649 32.0301C119.686 30.9674 121.573 28.0384 121.573 23.8862C121.573 19.7013 119.687 16.7723 116.682 15.6779C115.435 15.2273 114.284 15.1629 112.813 15.1629H109.36V32.609H112.813Z" fill="black"/>
<path d="M126.024 32.7379H128.134L133.953 23.7569L128.23 15.0018H126.151V12.5234H133.299V15.0023H131.619L135.359 20.9573C135.711 21.44 135.935 21.8584 135.935 21.8584H136C136 21.8584 136.192 21.44 136.542 20.9573L140.155 15.0023H138.539V12.5234H145.463V15.0023H143.353L137.502 24.0477L143.257 32.7384H145.399V35.2489H138.252V32.7379H139.9L136.128 26.8147C135.776 26.2997 135.552 25.8813 135.552 25.8813H135.488C135.456 25.8813 135.296 26.2997 134.977 26.8147L131.331 32.7379H132.98V35.2485H126.025V32.7379H126.024Z" fill="black"/>
</g>
<defs>
<linearGradient id="paint0_linear_2032_179" x1="40.2124" y1="12.4095" x2="24.0987" y2="1.91676" gradientUnits="userSpaceOnUse">
<stop stop-color="#80C3E6"/>
<stop offset="1" stop-color="#3380C2"/>
</linearGradient>
<linearGradient id="paint1_linear_2032_179" x1="43.0404" y1="36.6411" x2="30.9948" y2="28.6865" gradientUnits="userSpaceOnUse">
<stop stop-color="#F38649"/>
<stop offset="0.1849" stop-color="#F28147"/>
<stop offset="0.4091" stop-color="#EF7242"/>
<stop offset="0.6537" stop-color="#EA5A3A"/>
<stop offset="0.911" stop-color="#E4382E"/>
<stop offset="1" stop-color="#E12A29"/>
</linearGradient>
<linearGradient id="paint2_linear_2032_179" x1="3.34845" y1="19.6485" x2="26.393" y2="5.24868" gradientUnits="userSpaceOnUse">
<stop stop-color="#42AB4A"/>
<stop offset="1" stop-color="#ADD155"/>
</linearGradient>
<linearGradient id="paint3_linear_2032_179" x1="8.38061" y1="45.4205" x2="27.1122" y2="15.4437" gradientUnits="userSpaceOnUse">
<stop stop-color="#42AB4A"/>
<stop offset="1" stop-color="#ADD155"/>
</linearGradient>
<clipPath id="clip0_2032_179">
<rect width="144.925" height="45" fill="white" transform="translate(0.536621)"/>
</clipPath>
</defs>
</svg>
