<svg width="20" height="45" viewBox="0 0 20 45" fill="none" xmlns="http://www.w3.org/2000/svg">
<path fill-rule="evenodd" clip-rule="evenodd" d="M9.90765 35.5092C7.31442 35.5092 5.31063 35.1132 4.34705 34.8771C3.68811 34.7157 3.15899 34.5487 2.75704 34.3771L4.04216 36.6094L4.54486 43.5841C4.54486 44.3661 6.98806 44.9999 10.0018 44.9999C13.0156 44.9999 15.4588 44.3661 15.4588 43.5841L15.8569 36.5335L17.0728 34.3706C16.6692 34.5445 16.1353 34.7137 15.4681 34.8771C14.5045 35.1132 12.5008 35.5092 9.90765 35.5092ZM17.1145 12.8131C15.2113 13.0834 12.6853 13.2323 10.0018 13.2323C7.31844 13.2323 4.79242 13.0834 2.88915 12.8131C1.94635 12.6793 1.20046 12.5214 0.672143 12.3441C0.546123 12.3017 0.332568 12.2294 0.127054 12.1142L1.30626 23.148C1.36106 22.958 1.42206 22.7682 1.48972 22.5791C1.62815 22.1916 1.78828 21.8127 1.97002 21.4426C2.15187 21.0726 2.3498 20.7228 2.56382 20.3933C2.77772 20.064 3.00552 19.7607 3.24687 19.4835C3.48834 19.2065 3.73602 18.9682 3.99035 18.7685C4.24458 18.569 4.50121 18.413 4.76026 18.3006C5.01942 18.1883 5.27605 18.132 5.53028 18.132C5.8231 18.132 6.10638 18.2134 6.38002 18.3762C6.65354 18.5389 6.90925 18.8025 7.14751 19.1668C7.20219 19.2482 7.23688 19.3305 7.25124 19.4138C7.26583 19.4972 7.27295 19.5757 7.27295 19.6492C7.27295 19.8236 7.23194 19.9613 7.14992 20.062C7.0679 20.1628 6.97048 20.2131 6.8579 20.2131C6.75475 20.2131 6.65905 20.1579 6.5706 20.0475C6.48203 19.937 6.38312 19.7791 6.27364 19.5737C6.1706 19.3876 6.05721 19.2531 5.93338 19.1697C5.80943 19.0864 5.67513 19.0447 5.53028 19.0447C5.305 19.0447 5.06445 19.1397 4.80862 19.3296C4.55268 19.5194 4.29926 19.7703 4.04837 20.0823C3.79725 20.3944 3.55669 20.7508 3.3266 21.152C3.0965 21.5531 2.89282 21.9638 2.7158 22.3843C2.53877 22.805 2.39816 23.2197 2.29351 23.6285C2.18886 24.0373 2.13659 24.4044 2.13659 24.7299C2.13659 24.8386 2.14394 24.9501 2.1583 25.0642C2.17289 25.1787 2.20012 25.2823 2.24044 25.3753C2.28053 25.4684 2.33533 25.5448 2.40448 25.6047C2.47375 25.665 2.5614 25.6949 2.66755 25.6949C2.78668 25.6949 2.92177 25.6542 3.07318 25.5728C3.22436 25.4917 3.38128 25.3849 3.54371 25.2533C3.70626 25.1214 3.86962 24.9723 4.03378 24.8055C4.19805 24.639 4.35084 24.4704 4.49237 24.2998C4.63389 24.1294 4.75945 23.9655 4.86882 23.8087C4.97829 23.6517 5.06031 23.5151 5.11511 23.3987L5.56405 22.0326C5.61873 21.8855 5.6903 21.7808 5.77887 21.7188C5.86732 21.6568 5.95831 21.6257 6.0517 21.6257C6.09662 21.6257 6.14165 21.6335 6.1868 21.649C6.23194 21.6645 6.27203 21.6888 6.30753 21.7216C6.34291 21.7547 6.37106 21.7972 6.39196 21.8496C6.41287 21.9018 6.42333 21.9629 6.42333 22.0326C6.42333 22.2187 6.40724 22.3929 6.37508 22.5559C6.34291 22.7188 6.3019 22.8775 6.25193 23.0326C6.20207 23.1875 6.14647 23.3435 6.08536 23.5005C6.02424 23.6574 5.96462 23.8212 5.90684 23.9918C5.89397 24.0112 5.87065 24.0721 5.83677 24.1747C5.80299 24.2776 5.7621 24.4065 5.71373 24.5614C5.66548 24.7165 5.6131 24.8898 5.55681 25.0817C5.50041 25.2736 5.44262 25.4692 5.38312 25.6688C5.3235 25.8684 5.2664 26.0642 5.21172 26.2561C5.15693 26.4478 5.10776 26.6213 5.06445 26.7764C5.02103 26.9313 4.98484 27.061 4.95578 27.1658C4.92683 27.2704 4.90914 27.3323 4.9027 27.3519C4.88662 27.4137 4.86077 27.4826 4.82551 27.5581C4.79012 27.6336 4.74831 27.7055 4.69995 27.7732C4.6517 27.841 4.59863 27.8974 4.54061 27.9417C4.48272 27.9862 4.42321 28.0087 4.36198 28.0087C4.25905 28.0087 4.18415 27.9737 4.13763 27.9041C4.09087 27.8343 4.06767 27.7064 4.06767 27.5205V27.4391C4.06767 27.4119 4.06916 27.3827 4.07238 27.3519C4.07548 27.2898 4.09972 27.1735 4.14486 27.0028C4.18989 26.8324 4.24377 26.6397 4.30661 26.4246C4.36933 26.2095 4.43699 25.9866 4.50937 25.756C4.58162 25.5254 4.64687 25.3192 4.70489 25.137C4.53407 25.3308 4.34923 25.5236 4.14969 25.7154C3.95003 25.9072 3.74567 26.0797 3.53659 26.2327C3.32729 26.3858 3.11649 26.5108 2.9042 26.6077C2.69179 26.7046 2.48742 26.7531 2.2911 26.7531C2.06583 26.7531 1.87191 26.7027 1.70925 26.6019C1.67996 26.5836 1.65227 26.5631 1.6247 26.5428L2.28088 33.5373C2.4517 33.9726 5.66755 35.042 9.90765 35.042C14.1497 35.042 17.3668 33.9715 17.5347 33.5366L18.4772 25.2207C18.3992 25.2935 18.3233 25.3646 18.2507 25.4335C17.9803 25.6892 17.7251 25.9091 17.4854 26.0932C17.2457 26.2772 17.0115 26.4198 16.783 26.5204C16.5544 26.6213 16.3098 26.6716 16.0492 26.6716C15.8046 26.6716 15.6154 26.6173 15.4819 26.5088C15.3484 26.4004 15.2816 26.2513 15.2816 26.0613V26.0177C15.2816 26.0042 15.2832 25.9876 15.2865 25.9682C15.2993 25.8521 15.3494 25.7181 15.4362 25.5671C15.523 25.4159 15.6276 25.259 15.7498 25.0963C15.8722 24.9335 16.0024 24.7687 16.1409 24.6021C16.2793 24.4355 16.4073 24.2776 16.5248 24.1282C16.6422 23.9793 16.7395 23.8427 16.8167 23.7185C16.8941 23.5945 16.9327 23.4938 16.9327 23.4163C16.9327 23.3698 16.9165 23.333 16.8845 23.3057C16.8522 23.2788 16.799 23.265 16.7251 23.265C16.5963 23.265 16.4635 23.299 16.327 23.3667C16.19 23.4345 16.0547 23.5258 15.9212 23.64C15.7877 23.7544 15.6573 23.8853 15.5302 24.0325C15.4032 24.1797 15.2841 24.3329 15.173 24.4916C15.0619 24.6506 14.9607 24.8105 14.8689 24.9714C14.7772 25.1322 14.6992 25.2804 14.6347 25.4159C14.6154 25.4586 14.5881 25.5188 14.5526 25.5961C14.5172 25.6736 14.4786 25.761 14.4368 25.8578C14.3948 25.9548 14.3506 26.0546 14.304 26.157C14.2573 26.2599 14.2147 26.3569 14.1761 26.4478C14.1375 26.5389 14.1029 26.6201 14.0725 26.6919C14.0417 26.7635 14.02 26.8131 14.0071 26.8403C13.9911 26.8751 13.9645 26.9408 13.9275 27.0378C13.8905 27.1347 13.8478 27.2481 13.7997 27.3779C13.7514 27.5076 13.7006 27.6443 13.6475 27.7878C13.5946 27.931 13.5445 28.0668 13.4979 28.1947C13.4511 28.3225 13.4101 28.435 13.3749 28.5319C13.3395 28.6286 13.3167 28.6946 13.3071 28.7295C13.275 28.8303 13.2371 28.925 13.1938 29.0145C13.1503 29.1035 13.1005 29.182 13.0441 29.2499C12.9878 29.3177 12.9235 29.3719 12.851 29.4125C12.7785 29.4534 12.6973 29.4736 12.6074 29.4736C12.4913 29.4736 12.3958 29.4453 12.3199 29.3893C12.2445 29.3331 12.2066 29.2254 12.2066 29.0667C12.2066 28.9891 12.2162 28.9097 12.2355 28.8284C12.2548 28.747 12.279 28.6664 12.308 28.5871C12.3369 28.5075 12.3668 28.4302 12.3974 28.3546C12.4278 28.2789 12.4561 28.2064 12.4817 28.1366C12.6556 27.749 12.8326 27.3606 13.0128 26.971C13.1929 26.5816 13.3659 26.196 13.5318 25.8143C13.5662 25.7346 13.5979 25.6566 13.6316 25.5774C13.6215 25.5874 13.6116 25.598 13.6017 25.6078C13.3924 25.8133 13.1842 25.9943 12.9766 26.1513C12.7689 26.3083 12.5629 26.4333 12.3588 26.5263C12.1543 26.6192 11.9556 26.6658 11.7623 26.6658C11.6305 26.6658 11.5203 26.6445 11.4318 26.6019C11.3433 26.5592 11.2726 26.501 11.2194 26.4275C11.1662 26.3539 11.1283 26.2667 11.1058 26.1659C11.0982 26.1315 11.0935 26.0955 11.0886 26.0596C11.0321 26.1044 10.9751 26.1479 10.9176 26.1893C10.7181 26.3325 10.5218 26.4478 10.3287 26.535C10.1357 26.6222 9.96176 26.6658 9.80748 26.6658C9.65285 26.6658 9.52741 26.6135 9.43068 26.5088C9.33418 26.4043 9.28605 26.2259 9.28605 25.9741C9.28605 25.7957 9.31178 25.5884 9.36313 25.3521C9.2795 25.5032 9.17497 25.6563 9.04952 25.8112C8.92385 25.9663 8.78071 26.1077 8.61988 26.2358C8.45871 26.3635 8.27858 26.4672 8.07916 26.5467C7.8795 26.6261 7.66227 26.6658 7.42746 26.6658C7.3212 26.6658 7.21908 26.6522 7.12086 26.6251C7.02264 26.5979 6.93659 26.5514 6.86261 26.4856C6.78852 26.4198 6.72913 26.3315 6.68398 26.2212C6.63895 26.1108 6.61643 25.972 6.61643 25.8055C6.61643 25.8016 6.62287 25.7425 6.63573 25.6281C6.6486 25.5137 6.68961 25.3335 6.75888 25.0874C6.82804 24.8415 6.9351 24.5226 7.07973 24.1312C7.22471 23.7398 7.42907 23.265 7.69294 22.7071C7.76049 22.5597 7.83861 22.4541 7.92695 22.3902C8.01563 22.3262 8.11121 22.2942 8.21414 22.2942C8.25928 22.2942 8.30592 22.3011 8.35417 22.3146C8.40265 22.3282 8.44757 22.3495 8.4895 22.3786C8.5312 22.4076 8.56509 22.4445 8.59093 22.489C8.61644 22.5335 8.62953 22.5848 8.62953 22.643C8.62953 22.6818 8.62459 22.7188 8.61494 22.7533C8.59874 22.8196 8.56417 22.9055 8.51132 23.012C8.45814 23.1188 8.3961 23.2408 8.32522 23.3784C8.25457 23.516 8.17967 23.6642 8.10087 23.8233C8.02195 23.982 7.94877 24.1467 7.88123 24.3173C7.81368 24.488 7.75566 24.6613 7.70742 24.8376C7.65917 25.014 7.63171 25.1856 7.62539 25.3521C7.62539 25.4218 7.64136 25.4857 7.67364 25.5439C7.70581 25.602 7.759 25.631 7.83298 25.631C8.04205 25.631 8.24159 25.5612 8.4316 25.4218C8.62138 25.2823 8.79668 25.1088 8.95773 24.9015C9.11868 24.6942 9.26422 24.4713 9.39461 24.2329C9.52499 23.9945 9.63355 23.7767 9.7204 23.579C9.78163 23.4473 9.83551 23.3057 9.88215 23.1546C9.92879 23.0034 9.97956 22.8641 10.0342 22.7361C10.089 22.6081 10.1516 22.5015 10.2225 22.4163C10.2932 22.3311 10.3819 22.2884 10.4879 22.2884C10.6039 22.2884 10.6955 22.333 10.7632 22.4221C10.8308 22.5114 10.8645 22.6179 10.8645 22.7418C10.8645 22.8115 10.8429 22.9076 10.7993 23.0297C10.7558 23.1517 10.7011 23.2913 10.6352 23.4483C10.5691 23.6052 10.4975 23.7728 10.4205 23.9509C10.3433 24.1294 10.2715 24.3104 10.2058 24.4946C10.1395 24.6787 10.085 24.8589 10.0415 25.0352C9.99794 25.2115 9.97635 25.3753 9.97635 25.5264C9.97635 25.6659 10.0471 25.7358 10.1886 25.7358C10.2885 25.7358 10.4123 25.7008 10.5604 25.631C10.7085 25.5612 10.8638 25.4634 11.0262 25.3374C11.0668 25.306 11.1076 25.2732 11.1482 25.2387C11.1936 25.0484 11.2468 24.8726 11.3087 24.7127C11.4213 24.4102 11.5356 24.11 11.6515 23.8116C11.7673 23.5132 11.8734 23.2399 11.9701 22.9918L13.4328 19.2423C13.4907 19.0912 13.5688 18.9846 13.6668 18.9226C13.7651 18.8607 13.864 18.8296 13.9638 18.8296C14.0634 18.8296 14.1543 18.8625 14.2364 18.9284C14.3186 18.9944 14.3597 19.1009 14.3597 19.2482C14.3597 19.3179 14.3459 19.3916 14.3186 19.469C14.2912 19.5466 14.2566 19.6298 14.2147 19.719C14.1344 19.9013 14.0386 20.124 13.9275 20.3875C13.8164 20.6511 13.6973 20.9379 13.5703 21.2479C13.4431 21.558 13.3127 21.8806 13.1792 22.2158C13.0457 22.5511 12.9153 22.8775 12.7882 23.1953C12.6612 23.5132 12.542 23.8143 12.4309 24.0993C12.3199 24.3841 12.2244 24.6313 12.1437 24.8404C12.1083 24.9295 12.0738 25.0334 12.0401 25.1516C12.0062 25.2696 11.9894 25.3753 11.9894 25.4684C11.9894 25.5264 11.9991 25.5728 12.0184 25.6078C12.0377 25.6427 12.0747 25.6602 12.1294 25.6602C12.1969 25.6602 12.2813 25.636 12.3828 25.5874C12.4841 25.5391 12.5935 25.475 12.711 25.3955C12.8286 25.3162 12.9508 25.2251 13.0778 25.1224C13.2051 25.0197 13.3313 24.9132 13.4568 24.8027C13.5824 24.6921 13.7023 24.5817 13.8164 24.4713C13.9306 24.3609 14.033 24.2592 14.1232 24.1661C14.1443 24.1438 14.1696 24.128 14.1974 24.1162C14.2517 23.9512 14.3013 23.7895 14.3451 23.6314C14.3708 23.5616 14.4063 23.4629 14.4514 23.3349C14.4963 23.2069 14.5479 23.081 14.6058 22.9569C14.6637 22.833 14.729 22.7253 14.8012 22.6343C14.8736 22.5434 14.9518 22.4977 15.0354 22.4977C15.1642 22.4977 15.2576 22.5278 15.3155 22.5877C15.3734 22.648 15.4023 22.7361 15.4023 22.8524C15.4023 22.8756 15.3991 22.9124 15.3927 22.9628C15.3861 23.0132 15.3783 23.0666 15.3687 23.1228C15.359 23.1788 15.3484 23.2322 15.3372 23.2827C15.3258 23.333 15.3155 23.3698 15.3058 23.393C15.4247 23.2612 15.5535 23.1305 15.6919 23.0007C15.8303 22.8708 15.9735 22.7533 16.1216 22.6489C16.2697 22.5442 16.4209 22.4591 16.5755 22.3929C16.7298 22.3273 16.8844 22.2942 17.0388 22.2942C17.145 22.2942 17.2504 22.3098 17.355 22.3408C17.4595 22.3718 17.553 22.4173 17.6349 22.4774C17.7171 22.5376 17.7839 22.6131 17.8353 22.7042C17.8867 22.7952 17.9125 22.9007 17.9125 23.0209C17.9125 23.18 17.8732 23.3495 17.7943 23.5297C17.7155 23.7099 17.6166 23.891 17.4974 24.073C17.3783 24.2553 17.2495 24.4325 17.1113 24.605C16.9729 24.7775 16.8434 24.9343 16.7227 25.0758C16.602 25.2174 16.5005 25.3374 16.4184 25.4362C16.3366 25.5352 16.2936 25.602 16.2905 25.637C16.2905 25.6834 16.3051 25.7212 16.3341 25.7504C16.363 25.7793 16.4113 25.7939 16.4788 25.7939C16.5335 25.7939 16.6141 25.7629 16.7202 25.7008C16.8263 25.6388 16.9753 25.5314 17.1667 25.3783C17.3581 25.2251 17.6013 25.0197 17.8957 24.7619C18.0977 24.5854 18.3341 24.3748 18.6005 24.1352L19.8772 12.1139C19.6716 12.2293 19.4577 12.3017 19.3316 12.3441C18.8033 12.5214 18.0575 12.6793 17.1145 12.8131ZM9.99427 9.96094C4.47462 9.96094 0 10.5884 0 11.3624C0 12.1365 4.47462 12.764 9.99427 12.764C15.5139 12.764 19.9885 12.1365 19.9885 11.3624C19.9885 10.5884 15.5139 9.96094 9.99427 9.96094ZM13.9848 11.772C13.9848 11.9537 13.4531 12.1009 12.797 12.1009C12.1411 12.1009 11.6093 11.9537 11.6093 11.772C11.6093 11.5903 12.1411 11.443 12.797 11.443C13.4531 11.443 13.9848 11.5903 13.9848 11.772Z" fill="#DA4648"/>
<path fill-rule="evenodd" clip-rule="evenodd" d="M11.8498 11.6267C11.8439 11.6363 11.8408 11.646 11.8408 11.6559C11.8408 11.7735 12.269 11.8687 12.7969 11.8687C13.325 11.8687 13.7531 11.7735 13.7531 11.6559L15.0019 6.50795L19.9683 1.17698C19.97 1.17535 19.9715 1.17367 19.9731 1.17193C20.0782 1.05105 19.8648 0.676962 19.5109 0.356133C19.157 0.0353033 18.7748 -0.0733139 18.656 0.0488512C18.6551 0.0497648 18.6542 0.0506914 18.6534 0.0516308L13.3544 5.72053L11.8498 11.6267Z" fill="#DA4648"/>
</svg>
