<svg width="86" height="47" viewBox="0 0 86 47" fill="none" xmlns="http://www.w3.org/2000/svg">
<path d="M21.5264 2.34606C21.8343 1.80338 22.2346 1.28198 22.8093 1.0266C23.0454 0.984039 23.2815 1.00532 23.5175 1.00532H35.1355C34.7968 1.30326 34.4684 1.61185 34.2426 2.0162C33.6473 3.02707 33.247 4.155 32.8776 5.28292C31.8307 8.68798 31.102 12.1888 30.3939 15.6896C30.0757 17.2751 29.7678 18.8712 29.4804 20.4567C28.5978 25.6494 27.6844 30.8315 26.5452 35.971C26.0012 38.3439 25.447 40.7168 24.6054 43.0046C24.2154 43.9516 23.8357 44.9625 23.0865 45.6648C22.912 45.8244 22.7375 46.0266 22.4912 45.9946H12.228C11.5301 45.9734 10.8424 46.0372 10.1445 45.9627C10.6064 45.5903 11.0169 45.1434 11.2837 44.6113C12.0535 43.0897 12.5359 41.4404 12.9977 39.8017C13.7161 37.1628 14.2909 34.4919 14.8348 31.8211C15.1735 30.0654 15.5738 28.3203 15.8201 26.5539C16.0972 24.5853 16.518 22.6381 16.8567 20.6802C17.3904 17.7965 17.9548 14.9129 18.5809 12.0505C19.0838 9.81591 19.597 7.59198 20.2846 5.41061C20.6233 4.35717 20.9928 3.31437 21.5264 2.34606Z" fill="#EB7077" stroke="#EB7077" stroke-width="0.09375"/>
<path d="M35.1355 1.00522C35.4331 1.00522 35.7308 0.994577 36.0284 1.00522C36.6853 1.367 37.2395 1.94161 37.5474 2.65454C37.9579 3.46324 38.2966 4.31451 38.6045 5.18705C39.6308 8.47506 40.3287 11.8588 41.0266 15.232C41.6219 18.254 42.1863 21.2866 42.72 24.3299C42.7611 24.4895 42.7098 24.7129 42.915 24.7555C42.1761 28.7564 41.4474 32.768 40.5237 36.737C40.0208 38.8758 39.4871 41.004 38.7276 43.0683C38.3171 44.1005 37.8963 45.2284 37.0239 45.9626C36.4697 46.0903 36.0695 45.654 35.7308 45.2603C35.1458 44.4835 34.7866 43.5684 34.4376 42.6533C33.2779 39.3759 32.5697 35.9602 31.8513 32.5552C31.3073 29.9056 30.825 27.2348 30.3221 24.5746C30.0963 23.2232 29.7884 21.8931 29.6139 20.5417C29.5831 20.5204 29.5113 20.4779 29.4805 20.4566C29.7678 18.8711 30.0757 17.275 30.3939 15.6895C31.1021 12.1887 31.8307 8.68788 32.8776 5.28282C33.2471 4.15489 33.6473 3.02697 34.2426 2.01609C34.4684 1.61174 34.7968 1.30316 35.1355 1.00522Z" fill="#F6A2AD" stroke="#F6A2AD" stroke-width="0.09375"/>
<path d="M47.9748 2.8462C48.3443 2.11199 48.7958 1.29265 49.5964 1.01599C53.6709 0.994705 57.7454 1.00535 61.8199 1.00535C61.4401 1.39906 61.0399 1.79277 60.7833 2.29288C59.993 3.76131 59.5312 5.38936 59.0591 6.99612C57.848 11.4227 56.9962 15.945 56.1854 20.4674C55.4361 24.9259 54.6356 29.3844 53.7222 33.8216C53.2501 36.0561 52.7574 38.2801 52.1314 40.4827C51.7311 41.8447 51.3103 43.2174 50.6535 44.4837C50.3353 45.0583 49.9658 45.6861 49.3603 45.984C45.4706 46.0159 41.5705 45.984 37.6808 45.9947C37.4652 45.9947 37.2395 45.9947 37.0239 45.9627C37.8963 45.2285 38.3171 44.1006 38.7276 43.0684C39.4871 41.0041 40.0208 38.876 40.5237 36.7372C41.4474 32.7681 42.1761 28.7566 42.915 24.7556C43.8079 19.5948 44.7419 14.434 45.9324 9.33709C46.4866 7.13445 47.0203 4.89988 47.9748 2.8462Z" fill="#EB7077" stroke="#EB7077" stroke-width="0.09375"/>
<path d="M61.8201 1.00522C62.1485 1.00522 62.4872 0.994577 62.8156 1.00522C63.3493 1.29252 63.729 1.782 64.0677 2.28211C64.6219 3.19722 64.9709 4.22938 65.3301 5.24026C66.1819 7.95366 66.8182 10.7416 67.4032 13.5294C68.1833 17.2856 68.8606 21.0631 69.5277 24.8406C69.6919 25.7451 69.8562 26.6602 69.9588 27.5753C69.9998 27.6179 70.082 27.703 70.1127 27.7349C69.7433 28.267 69.5996 28.9054 69.3943 29.5119C68.7477 31.672 68.3269 33.9066 67.9677 36.1305C67.6906 37.8756 67.3109 39.6101 66.7875 41.2913C66.3975 42.5363 65.9253 43.7706 65.1453 44.8134C64.7759 45.3135 64.273 45.6966 63.7188 45.952C62.8669 46.0477 62.364 45.1965 61.9535 44.5687C61.1016 43.0257 60.6398 41.3019 60.1472 39.6207C58.5256 33.3958 57.4684 27.022 56.3292 20.6907C56.319 20.5949 56.2677 20.5098 56.1855 20.4672C56.9963 15.9449 57.8482 11.4226 59.0592 6.99599C59.5314 5.38923 59.9932 3.76119 60.7835 2.29275C61.0401 1.79264 61.4403 1.39893 61.8201 1.00522Z" fill="#F6A2AD" stroke="#F6A2AD" stroke-width="0.09375"/>
<path d="M0.538086 25.2133C0.80493 25.192 1.07177 25.1494 1.34888 25.1494H12.5358C13.0079 25.2133 13.5005 25.1707 13.9521 25.3835C14.609 25.6602 15.194 26.1284 15.625 26.7136C15.6763 26.6817 15.7687 26.5966 15.82 26.554C15.5737 28.3204 15.1734 30.0655 14.8348 31.8212C14.2908 34.492 13.7161 37.1629 12.9976 39.8018C12.5358 41.4405 12.0534 43.0898 11.2837 44.6114C11.0168 45.1435 10.6063 45.5904 10.1445 45.9628C9.96999 45.9947 9.83656 45.8671 9.69288 45.7713C9.21051 45.4521 8.9334 44.8987 8.63577 44.3986C7.22971 41.0787 7.07576 37.4076 6.20338 33.9387C5.76207 32.2043 5.21811 30.4805 4.41758 28.8843C3.92495 27.9267 3.31942 27.0116 2.52915 26.2773C1.94415 25.7879 1.26677 25.3942 0.538086 25.2133Z" fill="#F6A2AD" stroke="#F6A2AD" stroke-width="0.09375"/>
<path d="M71.0154 26.3197C71.662 25.5642 72.6267 25.0854 73.6017 25.1279H82.0176C83.1876 25.1492 84.3679 25.0854 85.5379 25.1598C85.1889 25.4046 84.7681 25.5004 84.3987 25.7025C83.1158 26.3091 82.0176 27.3199 81.3197 28.5862C80.201 30.6079 79.811 32.9276 79.4826 35.2048C79.1541 37.4393 79.1644 39.7484 78.4665 41.9191C77.9944 43.4407 77.276 44.973 76.0341 45.9733C72.1752 46.0158 68.3162 45.9839 64.4675 45.9945C64.2109 45.9945 63.9646 46.0052 63.7183 45.952C64.2725 45.6966 64.7754 45.3135 65.1448 44.8134C65.9249 43.7706 66.397 42.5363 66.787 41.2913C67.3104 39.6101 67.6901 37.8756 67.9672 36.1305C68.3264 33.9066 68.7472 31.672 69.3938 29.5119C69.5991 28.9054 69.7428 28.267 70.1122 27.7349C70.4201 27.2667 70.6254 26.724 71.0154 26.3197Z" fill="#EB7077" stroke="#EB7077" stroke-width="0.09375"/>
</svg>
