<svg width="73" height="45" viewBox="0 0 73 45" fill="none" xmlns="http://www.w3.org/2000/svg">
<path fill-rule="evenodd" clip-rule="evenodd" d="M18.5386 15.0007C20.937 5.00024 26.9393 0 36.5391 0C50.942 0 52.7388 11.2452 59.9381 13.1229C64.7391 14.3741 68.9384 12.5006 72.5381 7.50036C70.1397 17.4987 64.1374 22.4989 54.5396 22.4989C40.1367 22.4989 38.34 11.2538 31.1406 9.37598C26.3396 8.12485 22.1404 9.99833 18.5407 14.9986L18.5386 15.0007ZM0.538086 37.4996C2.94063 27.4992 8.93668 22.4989 18.5386 22.4989C32.9415 22.4989 34.7382 33.7441 41.9376 35.6219C46.7386 36.873 50.9379 34.9995 54.5376 29.9993C52.1391 39.9998 46.1369 45 36.5371 45C22.1342 45 20.3374 33.7548 13.138 31.8771C8.33707 30.6259 4.13778 32.4994 0.538086 37.4996Z" fill="url(#paint0_linear_2031_123)"/>
<defs>
<linearGradient id="paint0_linear_2031_123" x1="0.538086" y1="-39.9912" x2="76.9258" y2="82.2471" gradientUnits="userSpaceOnUse">
<stop stop-color="#2383AE"/>
<stop offset="1" stop-color="#6DD7B9"/>
</linearGradient>
</defs>
</svg>
