<svg width="31" height="45" viewBox="0 0 31 45" fill="none" xmlns="http://www.w3.org/2000/svg">
<g clip-path="url(#clip0_2031_146)">
<path d="M7.50293 45C11.6429 45 15.0029 41.64 15.0029 37.5V30H7.50293C3.36293 30 0.00292969 33.36 0.00292969 37.5C0.00292969 41.64 3.36293 45 7.50293 45Z" fill="#0ACF83"/>
<path d="M0.00292969 22.5C0.00292969 18.36 3.36293 15 7.50293 15H15.0029V30H7.50293C3.36293 30 0.00292969 26.64 0.00292969 22.5Z" fill="#A259FF"/>
<path d="M0.00292969 7.5C0.00292969 3.36 3.36293 0 7.50293 0H15.0029V15H7.50293C3.36293 15 0.00292969 11.64 0.00292969 7.5Z" fill="#F24E1E"/>
<path d="M15.0029 0H22.5029C26.6429 0 30.0029 3.36 30.0029 7.5C30.0029 11.64 26.6429 15 22.5029 15H15.0029V0Z" fill="#FF7262"/>
<path d="M30.0029 22.5C30.0029 26.64 26.6429 30 22.5029 30C18.3629 30 15.0029 26.64 15.0029 22.5C15.0029 18.36 18.3629 15 22.5029 15C26.6429 15 30.0029 18.36 30.0029 22.5Z" fill="#1ABCFE"/>
</g>
<defs>
<clipPath id="clip0_2031_146">
<rect width="30.006" height="45" fill="white"/>
</clipPath>
</defs>
</svg>
