<svg width="45" height="45" viewBox="0 0 45 45" fill="none" xmlns="http://www.w3.org/2000/svg">
<g clip-path="url(#clip0_2032_213)">
<path d="M45 0H0V45H45V0Z" fill="#F7DF1E"/>
<path d="M30.2286 35.1564C31.1351 36.6364 32.3143 37.7242 34.4001 37.7242C36.1522 37.7242 37.2715 36.8485 37.2715 35.6385C37.2715 34.1885 36.1215 33.6749 34.1929 32.8314L33.1358 32.3778C30.0843 31.0778 28.0572 29.4492 28.0572 26.0064C28.0572 22.8349 30.4736 20.4207 34.2501 20.4207C36.9386 20.4207 38.8715 21.3564 40.2643 23.8064L36.9715 25.9207C36.2465 24.6207 35.4643 24.1085 34.2501 24.1085C33.0115 24.1085 32.2265 24.8942 32.2265 25.9207C32.2265 27.1892 33.0122 27.7028 34.8265 28.4885L35.8836 28.9414C39.4765 30.4821 41.5051 32.0528 41.5051 35.5842C41.5051 39.3914 38.5143 41.4771 34.4979 41.4771C30.5708 41.4771 28.0336 39.6057 26.7922 37.1528L30.2286 35.1564ZM15.2908 35.5228C15.9551 36.7014 16.5593 37.6978 18.0122 37.6978C19.4015 37.6978 20.2779 37.1542 20.2779 35.0407V20.6621H24.5065V35.0978C24.5065 39.4764 21.9393 41.4692 18.1922 41.4692C14.8065 41.4692 12.8458 39.7171 11.8486 37.6067L15.2908 35.5228Z" fill="black"/>
</g>
<defs>
<clipPath id="clip0_2032_213">
<rect width="45" height="45" fill="white"/>
</clipPath>
</defs>
</svg>
