<svg width="76" height="45" viewBox="0 0 76 45" fill="none" xmlns="http://www.w3.org/2000/svg">
<g clip-path="url(#clip0_2032_236)">
<path d="M17.7612 11.8422H31.8996V12.9605H19.0572V21.3775H31.1337V22.4958H19.0572V31.7368H32.0468V32.8551H17.7612V11.8422ZM33.1661 11.8422H34.6683L41.3251 21.0832L48.1292 11.8422L57.3838 0.104004L42.1793 22.0544L50.0143 32.8551H48.4532L41.3251 23.0255L34.1676 32.8551H32.6359L40.5298 22.0544L33.1661 11.8422ZM50.5739 12.9605V11.8422H66.6857V12.9605H59.2631V32.8551H57.9671V12.9605H50.5739Z" fill="black"/>
<path d="M0.0737305 11.8423H1.69375L24.0328 45.11L14.8012 32.8552L1.42865 13.4315L1.36974 32.8552H0.0737305V11.8423Z" fill="black"/>
<path d="M66.5552 31.3994C66.8231 31.3994 67.0185 31.1952 67.0185 30.9314C67.0185 30.6675 66.8231 30.4633 66.5552 30.4633C66.2904 30.4633 66.0918 30.6675 66.0918 30.9314C66.0918 31.1952 66.2904 31.3994 66.5552 31.3994ZM67.8287 30.1681C67.8287 30.9471 68.3929 31.4559 69.2156 31.4559C70.0919 31.4559 70.6215 30.9314 70.6215 30.0204V26.8133H69.9154V30.0173C69.9154 30.523 69.6601 30.7931 69.2093 30.7931C68.8058 30.7931 68.5316 30.5419 68.5221 30.1681H67.8287ZM71.5451 30.1272C71.5955 30.9376 72.2733 31.4559 73.282 31.4559C74.36 31.4559 75.0346 30.9125 75.0346 30.0455C75.0346 29.3639 74.65 28.987 73.717 28.7702L73.2158 28.6477C72.6232 28.5095 72.3836 28.3242 72.3836 28.0007C72.3836 27.5923 72.7556 27.3253 73.3135 27.3253C73.8431 27.3253 74.2087 27.586 74.2749 28.0038H74.9621C74.9211 27.2405 74.2465 26.7034 73.3229 26.7034C72.33 26.7034 71.668 27.2405 71.668 28.0478C71.668 28.7137 72.0432 29.1095 72.8659 29.3011L73.4522 29.4425C74.0543 29.5838 74.319 29.7911 74.319 30.1366C74.319 30.5387 73.903 30.8308 73.3356 30.8308C72.7272 30.8308 72.3048 30.5576 72.2449 30.1272H71.5451Z" fill="black"/>
</g>
<defs>
<clipPath id="clip0_2032_236">
<rect width="75.121" height="45" fill="white"/>
</clipPath>
</defs>
</svg>
