<svg width="52" height="45" viewBox="0 0 52 45" fill="none" xmlns="http://www.w3.org/2000/svg">
<path d="M15.5892 16.4636L25.1823 10.925C25.4224 10.7864 25.7183 10.7864 25.9584 10.925L35.5517 16.4636C35.7916 16.6022 35.9397 16.8583 35.9397 17.1357V28.2128C35.9397 28.4899 35.7916 28.7462 35.5517 28.885L25.9584 34.4236C25.7183 34.5622 25.4224 34.5622 25.1823 34.4236L15.5892 28.885C15.3491 28.7464 15.2012 28.4901 15.2012 28.2128V17.1357C15.2014 16.8583 15.3493 16.6022 15.5892 16.4636Z" fill="#8080F2"/>
<path d="M50.5128 21.509L39.0508 1.56849C38.6345 0.847503 37.8654 0.315674 37.0328 0.315674H14.1085C13.2758 0.315674 12.5065 0.847503 12.0901 1.56849L0.628182 21.4651C0.21183 22.1862 0.21183 23.0964 0.628182 23.8176L12.0901 43.5947C12.5065 44.3157 13.2758 44.6843 14.1085 44.6843H37.0326C37.8652 44.6843 38.6345 44.3268 39.0506 43.6056L50.5126 23.7962C50.9293 23.0754 50.9293 22.23 50.5128 21.509ZM41.0217 31.0978C41.0217 31.3909 40.8452 31.6621 40.591 31.8089L25.991 40.2324C25.7371 40.379 25.419 40.379 25.165 40.2324L10.5537 31.8089C10.2998 31.6621 10.1221 31.3911 10.1221 31.0978V14.2506C10.1221 13.9572 10.2972 13.6863 10.5513 13.5395L25.1508 5.116C25.4047 4.96923 25.7224 4.96923 25.9763 5.116L40.5887 13.5395C40.8428 13.6863 41.0217 13.9572 41.0217 14.2506V31.0978Z" fill="#4B32C3"/>
</svg>
