<svg width="47" height="45" viewBox="0 0 47 45" fill="none" xmlns="http://www.w3.org/2000/svg">
<g clip-path="url(#clip0_2032_152)">
<path d="M8.17308 0H37.9808C42.5 0 46.1538 3.65385 46.1538 8.17308V36.8269C46.1538 41.3462 42.5 45 37.9808 45H8.17308C3.65385 45 0 41.3462 0 36.8269V8.17308C0 3.65385 3.65385 0 8.17308 0Z" fill="#001E36"/>
<path d="M10.3848 31.5578V11.7693C10.3848 11.6347 10.4425 11.5578 10.5771 11.5578C10.904 11.5578 11.2117 11.5578 11.654 11.5385C12.1155 11.5193 12.5963 11.5193 13.1155 11.5001C13.6348 11.4808 14.1925 11.4808 14.7886 11.4616C15.3848 11.4424 15.9617 11.4424 16.5386 11.4424C18.1155 11.4424 19.4232 11.6347 20.5001 12.0385C21.4617 12.3655 22.3463 12.9039 23.0771 13.6155C23.6925 14.2308 24.1732 14.9808 24.4809 15.8078C24.7694 16.6155 24.9232 17.4424 24.9232 18.3078C24.9232 19.9616 24.5386 21.327 23.7694 22.4039C23.0001 23.4808 21.9232 24.2885 20.6732 24.7501C19.3655 25.2308 17.9232 25.4039 16.3463 25.4039C15.8848 25.4039 15.5771 25.4039 15.3848 25.3847C15.1925 25.3655 14.9232 25.3655 14.5578 25.3655V31.5385C14.5771 31.6732 14.4809 31.7885 14.3463 31.8078C14.3271 31.8078 14.3078 31.8078 14.2694 31.8078H10.6155C10.4617 31.8078 10.3848 31.7308 10.3848 31.5578ZM14.5771 15.2693V21.7308C14.8463 21.7501 15.0963 21.7693 15.3271 21.7693H16.3463C17.0963 21.7693 17.8463 21.6539 18.5578 21.4232C19.1732 21.2501 19.7117 20.8847 20.1348 20.4039C20.5386 19.9232 20.7309 19.2693 20.7309 18.4232C20.7502 17.827 20.5963 17.2308 20.2886 16.7116C19.9617 16.2116 19.5002 15.827 18.9425 15.6155C18.2309 15.327 17.4617 15.2116 16.6732 15.2308C16.1732 15.2308 15.7309 15.2308 15.3655 15.2501C14.9809 15.2308 14.7117 15.2501 14.5771 15.2693Z" fill="#31A8FF"/>
<path d="M36.9233 20.5578C36.3463 20.2501 35.731 20.0386 35.0771 19.904C34.3656 19.7501 33.654 19.654 32.9233 19.654C32.5387 19.6347 32.1348 19.6924 31.7694 19.7886C31.5194 19.8463 31.3079 19.9809 31.1733 20.1732C31.0771 20.3271 31.0194 20.5194 31.0194 20.6924C31.0194 20.8655 31.0964 21.0386 31.2117 21.1924C31.3848 21.404 31.6156 21.5771 31.8656 21.7117C32.3079 21.9424 32.7694 22.154 33.231 22.3463C34.2694 22.6924 35.2694 23.1732 36.1925 23.7501C36.8271 24.154 37.3464 24.6924 37.7117 25.3463C38.0194 25.9617 38.1733 26.6347 38.154 27.3271C38.1733 28.2309 37.904 29.1347 37.404 29.8847C36.8656 30.654 36.1156 31.2501 35.2502 31.5963C34.3079 32.0001 33.154 32.2117 31.7694 32.2117C30.8848 32.2117 30.0194 32.1347 29.154 31.9617C28.481 31.8463 27.8079 31.6347 27.1925 31.3463C27.0579 31.2694 26.9617 31.1347 26.981 30.9809V27.6347C26.981 27.5771 27.0002 27.5001 27.0579 27.4617C27.1156 27.4232 27.1733 27.4424 27.231 27.4809C27.981 27.9232 28.7694 28.2309 29.6156 28.4232C30.3464 28.6155 31.1156 28.7117 31.8848 28.7117C32.6156 28.7117 33.1348 28.6155 33.481 28.4424C33.7887 28.3078 34.0002 27.9809 34.0002 27.6347C34.0002 27.3655 33.8463 27.1155 33.5387 26.8655C33.231 26.6155 32.5964 26.3271 31.654 25.9617C30.6733 25.6155 29.7694 25.154 28.9233 24.5771C28.3271 24.154 27.8271 23.5963 27.4617 22.9424C27.154 22.3271 27.0002 21.654 27.0194 20.9809C27.0194 20.154 27.2502 19.3655 27.6733 18.654C28.154 17.8847 28.8656 17.2694 29.6925 16.8847C30.5963 16.4232 31.731 16.2117 33.0964 16.2117C33.8848 16.2117 34.6925 16.2694 35.481 16.3847C36.0579 16.4617 36.6156 16.6155 37.1348 16.8271C37.2117 16.8463 37.2887 16.9232 37.3271 17.0001C37.3464 17.0771 37.3656 17.154 37.3656 17.2309V20.3655C37.3656 20.4424 37.3271 20.5194 37.2694 20.5578C37.0964 20.5963 37.0002 20.5963 36.9233 20.5578Z" fill="#31A8FF"/>
</g>
<defs>
<clipPath id="clip0_2032_152">
<rect width="46.1538" height="45" fill="white"/>
</clipPath>
</defs>
</svg>
