<svg width="50" height="45" viewBox="0 0 50 45" fill="none" xmlns="http://www.w3.org/2000/svg">
<g clip-path="url(#clip0_2031_128)">
<path d="M49.929 22.5C49.929 19.1533 45.7928 15.9817 39.4514 14.0149C40.9148 7.46568 40.2644 2.25515 37.3985 0.586957C36.738 0.195652 35.9656 0.0102975 35.1221 0.0102975V2.30664C35.5896 2.30664 35.9656 2.39931 36.2806 2.57437C37.6628 3.37757 38.2623 6.43593 37.7949 10.3696C37.6831 11.3375 37.5001 12.357 37.2766 13.397C35.2847 12.9027 33.1099 12.5217 30.8233 12.2746C29.4514 10.3696 28.0286 8.63959 26.5957 7.12586C29.9087 4.00572 33.0184 2.29634 35.1323 2.29634V0C32.3375 0 28.679 2.01831 24.9798 5.51945C21.2806 2.0389 17.6221 0.0411899 14.8274 0.0411899V2.33753C16.931 2.33753 20.051 4.03661 23.364 7.13616C21.9412 8.64989 20.5184 10.3696 19.1668 12.2746C16.8701 12.5217 14.6953 12.9027 12.7034 13.4073C12.4697 12.3776 12.2969 11.3787 12.1749 10.4211C11.6973 6.48741 12.2867 3.42906 13.6587 2.61556C13.9636 2.43021 14.3599 2.34783 14.8274 2.34783V0.0514874C13.9737 0.0514874 13.2014 0.236842 12.5306 0.628146C9.67495 2.29634 9.0347 7.49657 10.5083 14.0252C4.18714 16.0023 0.0712891 19.1636 0.0712891 22.5C0.0712891 25.8467 4.20747 29.0183 10.5489 30.9851C9.08552 37.5343 9.73592 42.7449 12.6018 44.413C13.2623 44.8043 14.0347 44.9897 14.8884 44.9897C17.6831 44.9897 21.3416 42.9714 25.0408 39.4702C28.74 42.9508 32.3985 44.9485 35.1932 44.9485C36.0469 44.9485 36.8193 44.7632 37.49 44.3719C40.3457 42.7037 40.9859 37.5034 39.5123 30.9748C45.8132 29.008 49.929 25.8364 49.929 22.5ZM36.6973 15.6316C36.3213 16.96 35.8538 18.3295 35.3254 19.6991C34.9087 18.8753 34.4717 18.0515 33.9941 17.2277C33.5266 16.4039 33.0286 15.6007 32.5306 14.8181C33.9737 15.0343 35.366 15.3021 36.6973 15.6316ZM32.0428 26.5984C31.2501 27.9886 30.4371 29.3066 29.5936 30.532C28.0794 30.6659 26.5449 30.738 25.0002 30.738C23.4656 30.738 21.931 30.6659 20.427 30.5423C19.5835 29.3169 18.7603 28.0092 17.9676 26.6293C17.1953 25.2803 16.4941 23.9108 15.8538 22.5309C16.4839 21.151 17.1953 19.7712 17.9575 18.4222C18.7502 17.032 19.5632 15.714 20.4067 14.4886C21.9209 14.3547 23.4554 14.2826 25.0002 14.2826C26.5347 14.2826 28.0693 14.3547 29.5733 14.4783C30.4168 15.7037 31.24 17.0114 32.0327 18.3913C32.805 19.7403 33.5062 21.1098 34.1465 22.4897C33.5062 23.8696 32.805 25.2494 32.0428 26.5984ZM35.3254 25.2597C35.8741 26.6396 36.3416 28.0195 36.7278 29.3581C35.3965 29.6876 33.9941 29.9657 32.5408 30.1819C33.0388 29.389 33.5367 28.5755 34.0042 27.7414C34.4717 26.9176 34.9087 26.0835 35.3254 25.2597ZM25.0205 36.2471C24.0754 35.2586 23.1302 34.1567 22.1953 32.9519C23.1099 32.9931 24.0449 33.024 24.99 33.024C25.9453 33.024 26.8904 33.0034 27.8152 32.9519C26.9006 34.1567 25.9554 35.2586 25.0205 36.2471ZM17.4595 30.1819C16.0164 29.9657 14.6241 29.6979 13.2928 29.3684C13.6689 28.04 14.1363 26.6705 14.6648 25.3009C15.0815 26.1247 15.5184 26.9485 15.9961 27.7723C16.4737 28.5961 16.9615 29.3993 17.4595 30.1819ZM24.9697 8.75286C25.9148 9.74142 26.8599 10.8432 27.7949 12.0481C26.8802 12.0069 25.9453 11.976 25.0002 11.976C24.0449 11.976 23.0997 11.9966 22.1749 12.0481C23.0896 10.8432 24.0347 9.74142 24.9697 8.75286ZM17.4493 14.8181C16.9514 15.611 16.4534 16.4245 15.9859 17.2586C15.5184 18.0824 15.0815 18.9062 14.6648 19.73C14.116 18.3501 13.6485 16.9703 13.2623 15.6316C14.5936 15.3124 15.9961 15.0343 17.4493 14.8181ZM8.25218 27.7105C4.65462 26.1556 2.32739 24.1167 2.32739 22.5C2.32739 20.8833 4.65462 18.8341 8.25218 17.2895C9.12617 16.9085 10.0815 16.5686 11.0672 16.2494C11.6465 18.2677 12.4087 20.3684 13.3538 22.5206C12.4188 24.6625 11.6668 26.7529 11.0977 28.7609C10.0916 28.4416 9.13633 28.0915 8.25218 27.7105ZM13.7197 42.4256C12.3375 41.6224 11.738 38.5641 12.2054 34.6304C12.3172 33.6625 12.5002 32.643 12.7237 31.603C14.7156 32.0973 16.8904 32.4783 19.177 32.7254C20.5489 34.6304 21.9717 36.3604 23.4046 37.8741C20.0916 40.9943 16.9819 42.7037 14.868 42.7037C14.4107 42.6934 14.0245 42.6007 13.7197 42.4256ZM37.8254 34.5789C38.303 38.5126 37.7136 41.5709 36.3416 42.3844C36.0367 42.5698 35.6404 42.6522 35.1729 42.6522C33.0693 42.6522 29.9493 40.9531 26.6363 37.8535C28.0591 36.3398 29.4819 34.6201 30.8335 32.7151C33.1302 32.468 35.305 32.087 37.2969 31.5824C37.5306 32.6224 37.7136 33.6213 37.8254 34.5789ZM41.738 27.7105C40.864 28.0915 39.9087 28.4314 38.9229 28.7506C38.3436 26.7323 37.5815 24.6316 36.6363 22.4794C37.5713 20.3375 38.3233 18.2471 38.8924 16.2391C39.8985 16.5584 40.8538 16.9085 41.7481 17.2895C45.3457 18.8444 47.6729 20.8833 47.6729 22.5C47.6628 24.1167 45.3355 26.1659 41.738 27.7105Z" fill="#61DAFB"/>
<path d="M24.99 27.2058C27.555 27.2058 29.6343 25.0989 29.6343 22.4999C29.6343 19.9009 27.555 17.7939 24.99 17.7939C22.425 17.7939 20.3457 19.9009 20.3457 22.4999C20.3457 25.0989 22.425 27.2058 24.99 27.2058Z" fill="#61DAFB"/>
</g>
<defs>
<clipPath id="clip0_2031_128">
<rect width="50" height="45" fill="white"/>
</clipPath>
</defs>
</svg>
