<svg width="116" height="45" viewBox="0 0 116 45" fill="none" xmlns="http://www.w3.org/2000/svg">
<path d="M79.5553 3.99383L79.5296 3.74634L79.127 3.78047L79.1527 4.02796L79.5553 3.99383ZM82.2626 10.4797L82.2711 10.6162L82.5538 10.5906C82.5453 10.5053 82.5796 10.3688 82.6395 10.1981L82.6138 9.95059C82.4939 9.95912 82.3739 10.1383 82.2626 10.4797ZM71.6992 18.6468C71.6821 18.4164 70.9624 17.5203 69.5403 15.9415C69.5146 15.6513 70.0029 15.2161 71.0052 14.6443L73.8667 12.1609C74.5092 11.3502 74.8862 10.0359 74.9976 8.20964L74.9633 7.79147C74.8519 6.52844 73.9352 5.51288 72.1961 4.73629C71.168 4.04503 69.3175 3.661 66.6445 3.59273C64.4342 3.78047 61.547 4.56561 57.9917 5.95666C57.015 6.65645 55.9013 7.35624 54.6504 8.05603L54.6676 8.26938C54.7447 8.26085 54.8646 8.21818 55.0017 8.1243C55.1473 8.10723 55.233 8.1755 55.2416 8.31205L55.4558 8.20111L55.5586 8.19257L55.5671 8.28645C55.5757 8.39739 54.8047 9.00331 53.2454 10.0871L53.3654 10.309L53.2626 10.3175L53.0055 10.2237C53.0141 10.3005 52.9027 10.3517 52.6886 10.3688L52.6971 10.4626L52.9456 10.7699C52.8685 10.7784 52.7485 10.7443 52.5858 10.6845C52.2259 10.7186 51.8747 10.9064 51.5234 11.2648L51.6691 10.6333C52.1917 8.38886 52.5515 6.40042 52.74 4.67655L52.7143 4.56561C52.3544 4.33519 52.0032 4.01089 51.6776 3.60126C51.6862 3.3367 51.6862 3.18309 51.6776 3.14895L51.6519 3.05508L51.5491 3.08068C50.4182 4.77042 48.2422 7.65493 45.0123 11.7342C42.5535 14.6358 41.2856 16.2487 41.2085 16.573C40.2061 17.6056 39.7264 18.2286 39.7778 18.442C39.5122 18.6126 39.4008 18.7833 39.4436 18.9711C39.3665 18.9881 39.3151 18.9625 39.298 18.8857C38.8696 19.577 38.2357 20.0208 37.3875 20.217L36.4965 20.4219C36.3766 20.4475 36.3166 20.5328 36.3252 20.6779L36.3509 20.7888L36.685 20.712L36.7107 20.8059L35.9568 21.096L34.6203 21.4033L33.9178 21.4459C33.815 21.5483 34.4747 21.4374 34.2177 21.4971L33.3438 21.702C32.8126 21.8214 32.5213 21.7788 32.4699 21.5654L32.3671 21.591C32.3843 21.6849 32.3928 21.7532 32.3757 21.8129L32.3243 21.5996L31.6218 21.7617C31.5704 21.4374 30.6194 20.2597 28.7775 18.2286C28.7432 17.836 29.3943 17.2643 30.7222 16.5218L34.4747 13.2362C35.3143 12.1609 35.8111 10.437 35.9739 8.06456L35.9225 7.50985C35.7769 5.83718 34.5603 4.4888 32.2729 3.44765C30.9193 2.5345 28.4862 2.04806 24.9736 1.97126C22.0608 2.21875 18.2569 3.25136 13.5792 5.05205C12.2942 5.98226 10.8292 6.90393 9.18427 7.81708L9.20997 8.10723C9.32134 8.0987 9.46698 8.03896 9.6469 7.93655C9.83537 7.91948 9.93818 8.00482 9.95531 8.17551L10.2466 8.01336L10.3922 8.00482L10.4008 8.14137C10.4094 8.27791 9.38988 9.07158 7.32518 10.5224L7.48796 10.7784L7.34232 10.7869L7.02533 10.676C7.0339 10.7613 6.88826 10.8211 6.5884 10.8467L6.60554 11.0003L6.94823 11.3758C6.83685 11.3843 6.68264 11.3502 6.4856 11.2819C5.81735 11.3416 5.16625 11.8195 4.5237 12.7241L4.68648 12.9802C5.24335 12.4681 5.5689 12.2121 5.66314 12.2036L5.69741 12.6217C5.60317 12.6303 5.45753 12.69 5.26049 12.7924L5.61174 13.3215C6.28855 12.5961 7.0339 11.9732 7.84778 11.4526C8.25044 11.555 8.46462 11.683 8.47319 11.8195L8.78161 11.7939C10.9919 10.1639 13.1766 8.98624 15.3441 8.26085L15.3698 8.551C14.9671 9.14839 14.693 9.45561 14.5473 9.47268C14.5645 9.6775 14.633 9.85671 14.7615 10.0103C14.7958 10.3773 13.8106 12.8522 11.8144 17.4264C7.28235 28.0598 3.4785 35.9282 0.385742 41.0145C0.394309 41.1169 0.45428 41.2535 0.565654 41.4241C1.32814 41.2449 1.8079 41.0572 2.01351 40.8779L2.17629 40.8609L2.20199 41.151L2.48471 41.1254L2.77599 40.9633C2.78456 41.0486 2.8788 41.0913 3.07585 41.0742L3.10155 41.3644C3.12725 41.646 2.96447 42.0727 2.62178 42.6616C2.31336 43.0115 1.97924 43.7454 1.62799 44.8633L1.63656 44.9999L1.91927 44.9743C3.15295 43.6003 4.08678 42.2519 4.72932 40.9377C8.32755 39.888 11.0691 38.8554 12.971 37.8398C14.8815 37.6777 16.3379 37.1742 17.3317 36.3464L17.3145 36.1928L16.5949 36.4061L16.4321 36.4232L16.415 36.2696C17.82 36.0562 18.7881 35.749 19.3278 35.3223C22.0608 33.2229 24.1255 31.738 25.5219 30.859C28.392 28.7596 30.2596 26.7114 31.1078 24.723C31.262 24.6889 31.4162 24.6547 31.5875 24.6121C31.9902 24.595 32.2129 24.5865 32.2729 24.5694C32.2558 24.4926 32.29 24.4499 32.3671 24.4329C33.0097 24.3646 32.7013 24.4755 33.1125 24.3817L34.1919 24.1342C34.1234 24.1512 34.0977 24.1854 34.1148 24.2536L34.2776 24.1512C34.2434 24.1512 34.2177 24.1427 34.1919 24.1342L34.3719 24.0915L34.2862 24.1427C34.4061 24.1598 34.5346 24.1512 34.6803 24.1171L34.7574 24.4329L29.8484 32.2074L28.7603 33.5643L28.2292 35.3394L28.332 35.3138L28.8631 35.0919L28.6918 35.7831L28.7432 35.9879L28.8888 36.1672C28.8203 36.1842 28.7946 36.2269 28.8117 36.3037L28.8374 36.4146L29.0602 36.3634C29.3857 36.0818 29.5228 35.8258 29.4714 35.5954C29.8227 35.6551 30.054 35.6807 30.1739 35.6466L30.1996 35.7575C29.9855 35.8087 29.8741 35.9794 29.8569 36.2696L29.8826 36.3805L30.0026 36.3549C31.7846 34.4177 36.1538 27.7867 39.6578 23.2893C39.5465 22.8029 41.3713 22.1287 45.1408 21.2582L45.2608 21.2326C45.3979 21.8214 45.1066 23.2466 44.3869 25.5081C43.9243 26.8736 43.7016 27.6246 43.7358 27.7441C43.1361 29.5618 42.8534 30.5432 42.8877 30.6968L41.5512 35.0577C40.6859 37.2937 40.0262 39.6405 39.5636 42.1154C39.6407 42.0983 39.7606 42.1069 39.932 42.1495L40.1205 41.9874C40.1376 42.0642 40.189 42.0898 40.2661 42.0727L40.189 41.757L40.7716 41.7399C40.9429 41.6972 41.0886 41.4839 41.2085 41.0913C41.1828 40.5025 41.3027 40.1867 41.5683 40.1184C41.9281 38.7188 42.1509 38.019 42.228 37.9934C42.5621 36.6024 42.8106 35.8087 42.9733 35.6124C43.4788 33.8032 43.8472 32.873 44.0871 32.8133L44.1385 33.0352L43.7701 33.9824C43.1275 36.8243 42.4764 39.0687 41.8168 40.7158L42.0052 41.5351L42.1252 41.5095C43.7187 38.0959 46.0147 31.3369 49.0047 21.2326C49.0903 20.345 49.5187 19.6538 50.2812 19.1674L50.1098 18.9881L50.0841 18.8943C50.4268 18.8175 50.6667 18.6809 50.8038 18.4932C50.7866 18.4164 50.4868 18.3054 49.9042 18.1518L51.3949 11.7854C51.7205 11.4952 51.9089 11.3416 51.9689 11.3416L51.9946 11.6659C51.9175 11.6745 51.7976 11.7171 51.6605 11.811L51.9432 12.2121C52.4572 11.6574 53.0141 11.1795 53.6224 10.7784C53.9308 10.8637 54.085 10.9661 54.1021 11.0685L54.3249 11.0515C56.0212 9.81404 57.6832 8.9265 59.3196 8.38886L59.3367 8.60221C59.0369 9.05451 58.8312 9.28493 58.7199 9.29346C58.737 9.44708 58.7798 9.58362 58.8569 9.7031C58.8826 9.98472 58.1459 11.8622 56.638 15.3441C53.194 23.4088 50.3069 29.3741 47.9595 33.2485C47.968 33.3253 48.0194 33.4277 48.1137 33.5643C48.6877 33.4277 49.0561 33.2827 49.2017 33.1461L49.3045 33.1376L49.3216 33.3509L49.5615 33.3339L49.7757 33.2229C49.7843 33.2827 49.8614 33.3083 50.007 33.2997L50.0242 33.5301C50.0413 33.735 49.9213 34.0592 49.6558 34.503C49.4073 34.7676 49.1503 35.3223 48.8761 36.1672L48.8847 36.2781L49.1075 36.261C50.0413 35.2199 50.7524 34.1958 51.2407 33.1888C53.9736 32.3866 56.0555 31.61 57.4948 30.8419C58.9598 30.7139 60.0649 30.3384 60.8188 29.7069L60.8103 29.5959L60.2534 29.7581L60.1335 29.7666L60.1249 29.6557C61.1872 29.5021 61.9326 29.2631 62.3352 28.9474C64.4085 27.36 65.9763 26.225 67.0386 25.5593C70.3456 23.1613 71.8877 20.8571 71.6992 18.6468ZM71.1338 18.7919L71.2109 19.6538C71.1081 19.8671 70.9967 19.9781 70.8939 19.9866L70.7654 18.5188C71.0052 18.6041 71.1252 18.6894 71.1338 18.7919ZM6.26285 11.8451L6.11721 11.8537L6.0915 11.5891L6.68264 11.5379L6.69121 11.6745C6.59697 11.683 6.45133 11.7342 6.26285 11.8451ZM3.3757 40.6134C3.03301 40.4598 2.72459 40.4 2.45901 40.4256L2.42474 40.0075C2.4076 39.8453 2.50184 39.7344 2.70746 39.6917C2.89594 39.6746 3.00731 39.8112 3.02444 40.0843C3.52134 39.4784 3.79549 39.1711 3.8469 39.1626L4.16388 39.2906C4.06108 40.144 3.79549 40.5793 3.3757 40.6134ZM34.2262 8.46566C34.0806 8.48273 33.7893 8.03043 33.3695 7.13435L33.3438 6.8698C33.618 6.84419 33.9007 7.28797 34.2005 8.20111L34.2262 8.46566ZM33.815 5.28246L33.6951 5.56409L29.5057 3.82314C32.2986 3.91702 33.7379 4.40346 33.815 5.28246ZM16.1237 20.4133L15.5326 20.4645L15.5069 20.2L16.098 20.1488L16.1237 20.4133ZM15.6439 11.3246L15.7896 11.316L15.8239 11.7342C15.6868 11.7427 15.5069 11.9476 15.2841 12.3401L15.2584 12.05C15.524 11.7342 15.6611 11.4952 15.6439 11.3246ZM14.4017 14.2432L14.4531 14.7979L14.3075 14.8065L14.2561 14.2517L14.4017 14.2432ZM13.7506 15.2844L14.0333 15.2588C14.0076 15.7196 13.8791 15.9671 13.6478 15.9842L13.5021 15.9927C13.6821 15.6855 13.7677 15.4465 13.7506 15.2844ZM13.2623 16.7351L13.425 16.7181L13.4336 16.8546L13.168 17.2984L12.8853 17.324L12.8767 17.1875C13.1595 17.1618 13.288 17.0168 13.2623 16.7351ZM12.7825 18.0409L12.6968 18.7406L12.5512 18.7492L12.4912 18.0579L12.7825 18.0409ZM7.97629 31.6527C7.78781 32.6085 7.5822 33.0949 7.36802 33.112L7.35945 32.9754C7.30805 32.5061 7.51366 32.0623 7.97629 31.6527ZM7.09387 33.5557L7.10244 33.6923C7.11957 33.88 7.0339 33.991 6.84542 33.9995L6.83685 33.863C6.81972 33.7008 6.90539 33.5984 7.09387 33.5557ZM6.83685 37.507L7.28235 37.4643L7.29948 37.6179C7.18811 37.6265 7.04246 37.6862 6.86255 37.7886L6.57983 37.8142C6.5627 37.6691 6.65694 37.5582 6.83685 37.507ZM19.5163 33.6069C17.0147 34.8358 15.5411 35.6722 15.1042 36.1074C12.397 37.0462 11.0519 37.6265 11.0776 37.8569C8.67023 38.8042 7.0853 39.504 6.32282 39.9392C6.14291 39.9563 5.88589 39.888 5.5432 39.7344C5.50037 39.2479 5.72311 38.8554 6.19431 38.5396C6.6141 38.5055 7.01676 38.5652 7.40229 38.7274C7.84778 38.497 8.6274 38.2409 9.73257 37.9678L9.70687 37.6777L8.81588 37.7545C8.92725 37.6009 9.78397 37.1998 11.3946 36.5512L11.8401 36.5085L11.8487 36.6451C11.0862 36.7133 10.6664 36.9352 10.5722 37.3363C10.5893 37.5155 10.6921 37.5923 10.8806 37.5753C11.4546 37.2168 11.7373 37.0035 11.7287 36.9438C12.8168 36.7389 15.8239 35.1687 20.75 32.2415L20.7757 32.5061C20.7843 32.6341 20.3645 32.9925 19.5163 33.6069ZM11.96 36.0818C12.6797 36.0221 13.2965 35.7319 13.8106 35.2284C14.0162 35.2113 14.1275 35.2882 14.1361 35.4674C13.7849 35.5015 13.108 35.7917 12.1228 36.3549L11.9772 36.3634L11.96 36.0818ZM24.1512 26.7541L20.373 29.7325C17.563 31.5673 16.0552 32.489 15.841 32.5061C11.3689 34.9553 8.58456 36.2269 7.50509 36.3208L7.34232 36.3378C7.47939 35.8343 9.46699 31.7807 13.3222 24.1512C15.0185 24.0062 17.6915 23.221 21.3326 21.7873L22.2236 21.7105C24.0655 21.5483 25.4448 21.9068 26.353 22.7602L26.4044 23.3149C25.719 25.2777 24.9651 26.4213 24.1512 26.7541ZM16.7662 22.6151L17.3745 22.5639L17.3831 22.7004L16.7748 22.7516L16.7662 22.6151ZM25.3078 21.1728L25.7532 21.1302C26.1645 21.3265 26.3787 21.4971 26.3958 21.6508L26.4044 21.7873C26.0103 21.8214 25.6419 21.6166 25.3078 21.1728ZM26.5157 14.32C26.1216 14.7894 25.0422 15.5916 23.2773 16.7181C22.6948 16.7693 20.5273 17.6056 16.7748 19.2442C16.5863 19.1588 16.3893 19.1247 16.1751 19.1417L16.1494 18.8772C16.1066 18.3396 16.3465 17.6654 16.8776 16.8461C17.1689 15.31 17.4859 14.431 17.8371 14.2176L20.9642 7.21116C20.9299 6.77592 21.5982 6.4431 22.9689 6.21268L23.4144 6.17001L23.4487 6.57111C24.7937 6.36629 25.6333 6.24681 25.9589 6.22121C28.4434 6.00786 29.737 6.51137 29.8398 7.71467L30.1225 7.68907L30.0626 6.98074L30.371 6.95514C31.0992 7.35624 31.4933 7.84268 31.5447 8.41446C31.579 8.80702 31.3648 9.29346 30.9107 9.87378C30.7222 9.89085 30.6109 9.7543 30.5937 9.48121L30.2853 9.50681L30.2168 10.3602C28.9574 12.2377 28.0407 13.2021 27.4753 13.2533C26.9612 13.9616 26.6442 14.3115 26.5157 14.32ZM28.4348 19.2271C28.1778 19.0564 27.9722 18.9796 27.8179 18.9881L27.7837 18.57L28.0664 18.5444L28.6918 18.9113C28.7175 19.1076 28.6318 19.21 28.4348 19.2271ZM30.4224 21.5739C30.6965 21.6849 30.8593 21.8044 30.8936 21.9153L30.7565 21.9494L30.7651 21.958C30.7394 21.958 30.7051 21.9665 30.6794 21.975L30.4738 22.1372L30.4224 21.5739ZM30.6109 22.7516L30.5852 22.6407L30.945 22.5554L30.9707 22.6663L30.6109 22.7516ZM31.4761 23.716C31.8445 23.6563 32.0244 23.6307 32.7098 23.477L32.7355 23.588L31.4333 23.8867C31.4504 23.8269 31.4676 23.7672 31.4761 23.716ZM32.7441 24.2536C32.1958 24.3048 32.3157 24.2366 31.4419 24.4329L31.4162 24.3219L32.5042 23.972L33.0268 23.8525L33.0782 24.0574C32.8469 24.1086 33.0182 24.1086 32.7441 24.2536ZM33.9007 23.9805C33.7722 24.0147 33.6693 23.9549 33.6094 23.8099L33.9435 23.7331C34.0891 23.6989 34.1834 23.7587 34.2177 23.9037L33.9007 23.9805ZM37.0363 20.6181L37.0106 20.5072L37.5503 20.3792L37.6017 20.584L37.0363 20.6181ZM40.386 41.0828C40.4203 40.9292 40.4289 40.8182 40.4117 40.7414L40.5317 40.7158C40.6773 40.6817 40.763 40.7329 40.7973 40.8694L40.823 40.9804L40.386 41.0828ZM42.7335 21.4971L42.4936 21.4545C42.1081 21.6081 41.7825 21.719 41.5169 21.7788L41.2942 21.83C41.1657 21.8641 41.0629 21.8129 41.0115 21.6764L42.5793 21.3179L43.0933 21.079L43.2646 21.2753C43.0162 21.3265 42.8363 21.4033 42.7335 21.4971ZM43.9414 21.1131L43.9157 21.0022C43.9928 20.9851 44.0956 20.9254 44.207 20.8144L45.3208 20.5584L45.3465 20.6693C44.7553 20.8144 44.2841 20.9595 43.9414 21.1131ZM44.1128 18.8687C44.0357 18.8857 43.9329 18.954 43.8044 19.0564C43.7872 18.9796 43.633 18.9796 43.3417 19.0479C43.2903 18.8345 44.1128 18.5358 45.8177 18.1433L46.0575 18.0921L46.1089 18.2969C44.9095 18.6468 44.2413 18.8431 44.1128 18.8687ZM47.1113 15.6428C46.9914 16.9997 46.5116 17.7678 45.6634 17.9641L45.6377 17.8531L44.8838 18.1433L44.5497 18.2201C44.3784 18.2627 44.2242 18.2542 44.0871 18.2115L44.0185 17.9128C43.9928 17.8019 45.0809 16.2999 47.2912 13.4154L47.5482 13.4581C47.6425 13.8506 47.4968 14.576 47.1113 15.6428ZM52.4144 11.1198L52.3116 11.1283L52.2945 10.9149L52.74 10.8723L52.7485 10.9832C52.6714 11.0003 52.56 11.0429 52.4144 11.1198ZM50.2298 32.9754C49.9728 32.856 49.7414 32.8047 49.5444 32.8218L49.5187 32.4975C49.5101 32.3866 49.5787 32.3098 49.7243 32.2671C49.8699 32.25 49.9556 32.3524 49.9728 32.5743C50.3411 32.105 50.5468 31.866 50.5896 31.866L50.8209 31.9599C50.7352 32.6085 50.5382 32.9498 50.2298 32.9754ZM73.6525 8.56807C73.5411 8.5766 73.327 8.23524 72.9928 7.54399L72.9757 7.33063C73.1899 7.31357 73.4126 7.6464 73.6354 8.32912L73.6525 8.56807ZM73.3441 6.12734L73.2413 6.34922L70.0714 5.02644C72.1875 5.09472 73.2841 5.46168 73.3441 6.12734ZM59.9021 17.6227L59.4567 17.6654L59.4395 17.452L59.885 17.4179L59.9021 17.6227ZM59.5338 10.7186L59.6537 10.7101L59.6794 11.0344C59.568 11.0429 59.431 11.1966 59.2682 11.4952L59.251 11.2819C59.4481 11.0344 59.5423 10.8467 59.5338 10.7186ZM58.5999 12.9375L58.6342 13.3557L58.5143 13.3642L58.48 12.946L58.5999 12.9375ZM58.0945 13.7312L58.3172 13.7141C58.2915 14.0725 58.1973 14.2603 58.0345 14.2773L57.9146 14.2859C58.0431 14.0469 58.103 13.8592 58.0945 13.7312ZM57.7346 14.8235L57.8374 14.815L57.846 14.9259L57.649 15.2673L57.4262 15.2844L57.4177 15.1734C57.649 15.1564 57.7518 15.0369 57.7346 14.8235ZM57.3748 15.8135L57.2977 16.3597L57.1949 16.3682L57.1521 15.8305L57.3748 15.8135ZM53.7166 26.1653C53.571 26.8821 53.4168 27.2491 53.254 27.2662L53.2454 27.1723C53.2197 26.8139 53.3739 26.4725 53.7166 26.1653ZM53.0398 27.6075L53.0484 27.7014C53.0655 27.855 52.997 27.9403 52.8428 27.9489L52.8342 27.8379C52.8256 27.727 52.8942 27.6502 53.0398 27.6075ZM52.8513 30.6115L53.194 30.5859L53.2026 30.6968C53.1255 30.7054 53.0055 30.748 52.8685 30.8249L52.6457 30.8419C52.6372 30.7224 52.7057 30.6456 52.8513 30.6115ZM62.4723 27.6502C60.5875 28.5804 59.4652 29.2119 59.114 29.5362C57.0578 30.2531 56.0383 30.6968 56.0555 30.8761C54.2307 31.6014 53.0312 32.122 52.4658 32.4549C52.3287 32.4634 52.1317 32.4122 51.8747 32.2927C51.8404 31.9257 52.0117 31.6271 52.3716 31.4052C52.6971 31.3796 53.0055 31.4222 53.2883 31.5417C53.631 31.371 54.2221 31.1833 55.0617 30.9699L55.0445 30.7566L54.342 30.8078C54.4277 30.6883 55.0874 30.3811 56.3125 29.8861L56.6552 29.8605L56.6637 29.9544C56.0812 30.0056 55.7556 30.1763 55.6871 30.4835C55.6956 30.62 55.7813 30.6883 55.927 30.6712C56.3553 30.3896 56.5609 30.2275 56.5609 30.1763C57.3834 30.0312 59.6623 28.8364 63.4061 26.6005L63.4233 26.8139C63.4318 26.9077 63.1149 27.1808 62.4723 27.6502ZM56.7323 29.5277C57.2892 29.4765 57.7603 29.2631 58.1544 28.8876C58.3001 28.8706 58.3857 28.9388 58.3943 29.0754C58.1373 29.101 57.6318 29.3143 56.8694 29.724L56.7494 29.7325L56.7323 29.5277ZM66.002 22.4359L63.1491 24.723C61.0159 26.1141 59.8593 26.8139 59.6794 26.8309C56.2868 28.6913 54.1793 29.6557 53.3482 29.724L53.2283 29.7325C53.3311 29.3485 54.8475 26.2677 57.7775 20.4816C59.054 20.3706 61.0759 19.7647 63.8516 18.6724L64.5456 18.6126C65.942 18.4932 66.9872 18.7663 67.6726 19.4234L67.7069 19.8415C67.1843 21.3094 66.6188 22.1713 66.002 22.4359ZM60.399 19.2954L60.8445 19.2527L60.8531 19.3636L60.4076 19.4063L60.399 19.2954ZM66.8844 18.1945L67.2271 18.1689C67.5441 18.3225 67.7069 18.459 67.7154 18.57L67.724 18.6638C67.4242 18.6894 67.1414 18.5358 66.8844 18.1945ZM67.784 12.9972C67.4841 13.3557 66.6702 13.9701 65.3423 14.8235C64.8968 14.8662 63.2519 15.4977 60.4076 16.7266C60.2705 16.6754 60.1163 16.6583 59.9535 16.6669L59.9364 16.4535C59.9021 16.0439 60.0821 15.5318 60.4761 14.9089C60.6989 13.7312 60.9473 13.074 61.2044 12.9204L63.5946 7.59519C63.5689 7.27943 64.0744 7.02341 65.1024 6.82713L65.4451 6.80152L65.4708 7.12582C66.4818 6.96367 67.1157 6.8698 67.3727 6.84419C69.2575 6.68205 70.2428 7.05755 70.3199 7.97922L70.5426 7.96215L70.4998 7.45011L70.7225 7.43304C71.2708 7.73174 71.5621 8.09017 71.5964 8.51687C71.6221 8.82409 71.4679 9.19959 71.1423 9.63483C70.9967 9.65189 70.911 9.54949 70.8939 9.3276L70.6711 9.34467L70.6026 9.98472C69.6516 11.427 68.9577 12.1694 68.5208 12.2036C68.1352 12.7241 67.8954 12.9887 67.784 12.9972ZM68.7863 16.5474L68.7606 16.2231L68.9834 16.206L69.4632 16.4962C69.4717 16.6327 69.4032 16.7095 69.2575 16.7266C69.0519 16.5986 68.8977 16.5389 68.7863 16.5474ZM28.906 37.2766L28.6832 37.3278L28.4948 37.4899C28.529 37.6265 28.6147 37.6777 28.7603 37.6435C28.906 37.6094 28.966 37.5241 28.9317 37.3875L28.906 37.2766ZM28.0578 35.5954L28.0835 35.7063C28.2292 35.6722 28.2891 35.5868 28.2549 35.4503L28.2292 35.3394C28.0921 35.3735 28.0321 35.4588 28.0578 35.5954ZM34.0891 21.3009L34.3462 21.2411L34.2948 21.0192L34.0377 21.079L34.0891 21.3009ZM111.828 27.8038C109.224 28.3841 108.898 28.2817 108.35 28.3244L108.367 28.5377L108.607 28.5207L108.735 28.5121L108.701 28.4865L108.984 28.3756C111.562 28.094 111.862 28.1964 111.837 27.9062L111.828 27.8038ZM97.8035 29.6557L97.8206 29.869H97.8549L97.8378 29.6557H97.8035ZM96.1928 24.0318L95.9615 23.9549C95.7731 24.4585 95.6788 24.7571 95.6874 24.8425L95.6959 24.9364C95.8759 24.9278 96.0386 24.6206 96.1928 24.0318ZM112.359 27.7611L112.376 27.9745L112.753 28.0428L112.736 27.8294L112.359 27.7611ZM94.6336 29.9202L94.051 29.852L93.9482 30.0739L93.9568 30.1848L97.4265 29.8946L97.4094 29.6813L94.6336 29.9202ZM93.0573 22.3505L93.0487 22.2396L92.9287 22.2481L92.7146 22.3847L92.8345 22.5895C92.9973 22.5724 93.0744 22.4956 93.0573 22.3505ZM114.004 26.1909L114.167 26.1738C114.261 26.1653 114.304 26.0885 114.295 25.9519L114.201 25.7471C113.61 25.7983 113.336 25.8239 112.856 26.0885L112.848 25.9775L112.136 26.0458C112.119 25.8324 112.059 25.7215 111.965 25.73L111.597 25.7642C111.168 25.7983 110.963 25.7812 110.749 25.9434C110.74 25.8666 110.714 25.8324 110.671 25.8324L110.26 25.8666L110.02 26.0031C110.012 25.9263 109.986 25.8922 109.943 25.8922L109.798 26.0202L109.789 25.9092L109.215 25.8666L109.078 25.8751L109.095 26.0885L109.386 26.1653L109.66 26.1482C109.755 26.2079 109.858 26.225 109.977 26.2165L110.217 26.097L110.226 26.1909C108.881 26.5237 108.889 26.464 107.964 26.6176C107.861 26.5493 107.784 26.5152 107.733 26.5237L107.716 26.5408C107.613 26.5322 107.553 26.464 107.544 26.353L108.024 26.2933C108.058 26.2933 108.084 26.3274 108.35 26.3786C108.735 26.1909 108.752 26.1141 108.958 26.097L108.941 25.8836C107.622 26.1397 108.153 25.969 106.499 26.1141L106.422 26.1226L106.405 25.9092C108.53 25.6532 107.819 25.7983 108.547 25.5935C108.555 25.6703 108.581 25.7044 108.624 25.7044C108.71 25.6191 108.804 25.5764 108.915 25.5593L109.061 25.5508C109.806 25.4911 110.055 25.6362 111.528 25.2265L111.537 25.3204L111.777 25.2009L111.999 25.1838C111.982 24.9705 112.308 24.9364 112.419 24.9278L112.402 24.6974C109.815 25.218 109.138 25.0729 108.418 25.2777L108.41 25.1838C107.733 25.3033 107.707 25.2521 107.536 25.2607C107.484 25.2692 107.407 25.3119 107.322 25.3972C107.313 25.3204 107.287 25.2863 107.236 25.2863C107.21 25.2863 107.202 25.2948 107.193 25.2948L105 25.6532C104.991 25.5935 104.966 25.5593 104.914 25.5679C103.775 25.8068 104.083 25.8495 102.558 25.986C102.49 25.9946 102.396 26.0287 102.276 26.1055C102.267 26.0458 102.233 26.0117 102.156 26.0202L101.222 26.097L100.596 26.2506C100.588 26.1909 100.554 26.1567 100.476 26.1653C100.125 26.2591 99.8168 26.3189 99.5683 26.3359H99.5512C99.397 26.353 99.6283 26.2933 99.5084 26.2421L99.3199 26.353C99.0457 26.3786 99.1914 26.3359 98.249 26.3445C96.5955 26.5493 96.7754 26.5749 96.5955 26.5834L95.9787 26.5408C95.9872 26.6005 95.953 26.6432 95.8844 26.6432C95.1819 26.5493 94.8221 26.4384 94.8135 26.3103C94.9078 25.6447 95.0705 25.3033 95.3019 25.2863L95.4218 25.2777L95.319 25.4996L95.4389 25.4911C95.6617 25.3716 95.7645 25.2607 95.7559 25.1582L95.7388 24.9278L95.516 24.9449L95.4989 24.7315C95.4818 24.5694 95.5075 24.4243 95.5674 24.3048L96.0729 23.4941L96.09 23.7075L96.3299 23.6904L96.3128 23.477L96.1757 23.2808C96.3556 23.1271 96.4927 23.0418 96.6041 23.0333L96.5955 22.9223L96.27 22.9479L96.2443 22.6236C96.8954 21.2753 97.2038 20.4901 97.1866 20.2682L97.418 20.3621C97.5636 20.3536 97.6321 20.2682 97.6236 20.1146L97.4008 20.1317L97.3923 20.0378C97.3751 19.8757 97.4094 19.7221 97.4779 19.5855C97.8292 19.2186 97.992 18.8516 97.9577 18.4676C98.0262 18.459 98.0605 18.4932 98.0691 18.57C98.3689 18.3993 98.6002 17.947 98.7716 17.196C99.3027 16.2402 100.057 14.3285 101.042 11.4696C102.927 6.41749 102.85 5.87985 103.115 4.68508L102.892 4.70215C102.91 4.85576 102.875 5.00084 102.807 5.13739C102.653 5.07765 102.533 5.04351 102.447 5.05205L102.438 4.95817C102.404 4.52294 102.584 4.00236 102.995 3.38791L103.098 3.37937L103.287 4.1133L103.509 4.09623C103.501 4.04503 103.561 3.75487 103.681 3.21723C103.672 3.10628 103.586 3.03801 103.415 3.02948L103.201 3.16602C103.184 3.01241 103.192 2.61131 103.218 1.97126L103.107 1.97979C102.918 1.79204 102.824 1.63843 102.815 1.51042L101.59 1.6299C101.582 1.54456 101.539 1.41654 101.453 1.2544C101.445 1.14346 101.719 1.03251 102.284 0.921571L102.533 1.01544L102.764 0.8789C102.772 0.955707 102.815 0.989843 102.901 0.981309L103.132 0.844764C103.141 0.92157 103.184 0.955706 103.269 0.947172L103.381 0.938638L103.364 0.691151C103.192 0.708219 102.738 0.708219 102.019 0.682617L101.787 0.83623L101.779 0.699685C96.0301 1.16906 92.766 1.43361 91.9864 1.51042C91.8835 1.51895 91.4809 1.51042 90.7698 1.49335C90.7784 1.58723 90.6927 1.63843 90.5214 1.6555L90.2729 1.54456L89.4333 1.75791C89.2363 1.77497 88.9022 1.76644 88.4395 1.71524C88.311 1.81764 88.1568 1.87738 87.9683 1.89445C87.8655 1.90298 89.1934 1.82618 90.4271 1.74084C90.2986 1.84325 90.1016 1.90298 89.8274 1.92859C89.6389 1.94566 89.4762 1.92005 89.3391 1.84325C89.1506 1.92859 88.5423 2.06513 87.5228 2.26995L87.2744 2.17607L83.2649 2.79052C83.1107 2.71372 82.9308 2.68812 82.7252 2.70518C82.511 2.72225 82.1512 2.79906 81.6543 2.9356L79.7181 3.7378L79.8637 3.97676C79.958 3.96822 80.0951 3.91702 80.2578 3.82314L80.9432 3.88288L80.8575 4.52294C80.2236 4.80456 79.8552 5.22273 79.7524 5.75184C78.8014 6.17 78.3302 6.4687 78.3302 6.64791L78.3388 6.75885L78.4844 6.75032L78.7414 6.61378L79.0413 6.97221L79.0841 7.46718C79.1013 7.62079 77.4992 10.9747 74.2951 17.5288C71.5193 23.844 70.0629 27.3003 69.9258 27.9233C68.9748 28.1878 68.4265 28.5719 68.2637 29.0839C68.2809 29.2461 68.5636 29.357 69.1119 29.3997L69.1376 29.6472L68.8891 30.0568L68.932 30.5518C68.9577 30.8078 69.6516 31.0041 71.0138 31.1406C71.0052 31.0553 71.0481 31.0041 71.1423 30.9955C71.168 31.3028 71.0824 31.9001 70.8853 32.7877L71.031 32.7791C71.5964 32.0111 71.862 31.482 71.8363 31.1918L71.9562 31.1833C72.0933 31.1747 72.2389 31.3284 72.4103 31.6612C72.2389 31.7295 71.6392 33.0864 70.6112 35.7405L70.7568 35.9794L70.9024 35.9709C72.1618 32.7962 72.95 31.0382 73.2756 30.7054C74.929 30.5603 77.7905 30.2701 81.8513 29.8349L82.1084 29.6813C82.1169 29.7666 82.1683 29.8093 82.2626 29.8008L82.5281 29.7752L82.7852 29.6216C82.7937 29.7069 82.8451 29.7496 82.9394 29.741L86.015 29.4765C86.8289 29.4082 87.2144 29.1607 87.1801 28.7425C87.1716 28.6316 87.6513 28.5036 88.6194 28.367C88.7137 28.3585 88.8508 28.3841 89.0392 28.4439C89.0307 28.367 89.519 28.2902 90.4957 28.2049C90.5214 27.6929 90.6841 27.4198 90.9754 27.3942L90.9497 27.1467C90.6756 27.1723 90.3671 27.2406 90.0073 27.36C89.3648 27.3259 88.9536 27.2747 88.7822 27.215C88.6109 27.3088 88.4824 27.36 88.3881 27.3686L86.2463 27.4368L85.9893 27.5734C85.9807 27.4966 85.9293 27.4624 85.8351 27.471L85.7151 27.4795L85.441 27.6161C85.4324 27.5392 85.2097 27.4795 84.7642 27.4198L84.49 27.5819L83.9589 27.6246L83.9503 27.488C86.7089 27.1894 88.0711 26.8139 88.0369 26.3701C88.2168 26.353 88.311 26.4384 88.3281 26.6176L89.1335 26.4128L89.1078 26.1653L82.5024 26.3445C82.511 26.4298 82.4682 26.481 82.3739 26.4896L81.5686 26.4213C81.363 26.4384 81.1917 26.4981 81.0546 26.6005L80.7547 26.4896C79.9237 26.5578 79.3069 26.6602 78.8956 26.7882C78.3302 26.7456 77.7048 26.7541 77.0109 26.8139L75.5287 26.9419L74.8434 26.8651C74.8091 26.4298 75.6572 24.2878 77.405 20.4475C77.9104 19.1503 78.373 18.3395 78.8185 18.0323C78.9128 18.0238 79.0499 18.0579 79.2383 18.1347L80.2921 17.7763L80.8318 17.8616C81.74 17.7848 82.7937 17.5288 84.0017 17.085C84.3016 17.0594 84.5243 17.0765 84.6871 17.1448L85.4924 16.957L87.8912 16.7522C88.9107 16.6669 90.0159 16.445 91.2153 16.078L91.1896 15.8305C90.7441 15.8732 90.5128 15.7964 90.4957 15.6172C90.47 15.2844 90.1444 15.1478 89.519 15.199L89.4933 14.9515L90.153 14.7638L91.8835 14.6187L91.8578 14.3712C91.7893 14.3798 91.438 14.3712 90.7869 14.3456L90.7612 14.0811L91.4295 14.0213C91.6094 14.0043 91.6865 13.9189 91.6694 13.7482C90.7698 13.7738 90.3158 13.7312 90.3072 13.6117C84.036 13.9189 80.8918 13.9787 80.8747 13.7824C80.7804 13.7909 80.6519 13.8506 80.4806 13.9531L80.3178 13.697C81.9798 10.181 82.9565 8.40592 83.2392 8.38032C83.2478 8.51687 83.1793 8.73875 83.025 9.03744L83.0336 9.14839L83.2992 9.12278C83.9589 7.55252 84.5157 6.74179 84.9784 6.70765C86.9488 6.53697 84.7042 6.40896 88.9193 5.75184C89.0906 5.82864 89.2106 5.86278 89.2962 5.85425C90.9497 5.52142 93.2543 5.17152 96.21 4.81309L96.1928 4.56561L94.6165 4.71068L94.5993 4.4632C94.7878 4.44613 94.942 4.38639 95.0705 4.28398L95.0791 4.42053C95.1648 4.41199 95.2847 4.35226 95.4389 4.24985C95.7131 4.22424 95.9187 4.24985 96.0643 4.32665C96.6126 4.18157 97.0581 4.09623 97.3837 4.0621L98.3689 3.96822C98.6088 3.81461 98.7202 3.67807 98.7116 3.55006L98.703 3.43911C98.4546 3.46471 98.1719 3.44765 97.8378 3.38791C97.8292 3.25136 97.8977 3.15749 98.0605 3.11482L99.8939 2.94414L100.733 2.73079C100.742 2.82466 100.785 2.8588 100.853 2.8588C100.939 2.85026 101.059 2.79053 101.213 2.68812C101.256 2.69665 101.307 2.69665 101.35 2.70518C101.239 2.9356 101.11 3.26843 100.982 3.70367L100.742 3.72074C100.725 3.55859 100.682 3.41351 100.605 3.2855L100.485 3.29403C98.2575 9.47268 97.2637 12.3486 95.2076 17.0936C94.8307 18.3054 94.5137 18.9796 94.2395 19.1247C94.2481 19.2612 94.3338 19.3295 94.4794 19.3124C94.5308 19.9098 94.3937 20.4987 94.0596 21.079C93.1087 23.8099 92.4747 25.3033 92.1491 25.5764L92.3633 26.8651C92.3719 27.0016 92.3033 27.0784 92.1577 27.0955L91.935 27.1125C91.9007 26.7541 91.7722 26.5834 91.5409 26.609L91.4209 26.6176C91.1296 27.0699 90.9069 27.5904 90.7612 28.1964L90.984 28.1793C91.2838 27.983 91.4209 27.7526 91.3952 27.488L91.8407 27.4454L92.0977 27.5392C91.8921 27.8635 91.7979 28.1196 91.815 28.3158L91.935 28.5207L91.6437 29.2034L91.6522 29.3143C91.9092 29.2887 92.192 29.3741 92.4918 29.5533C92.6974 29.5362 92.9202 29.4423 93.1686 29.2802C93.4256 29.2546 94.3852 29.2461 96.0386 29.2461L96.8697 28.9644C97.8806 28.9559 98.0434 28.9815 98.9172 28.9047L99.277 28.8706L99.4655 28.7425L99.4741 28.8535C100.391 28.7767 100.451 28.8364 101.17 28.9218L101.179 29.0327L100.674 29.0754L100.691 29.2887C100.845 29.2717 100.982 29.229 101.093 29.1351C101.222 29.1266 101.299 29.1948 101.307 29.3485C101.102 29.3655 100.871 29.4167 100.614 29.5021L100.391 29.4253C100.04 29.5191 100.117 29.5447 99.8767 29.5618L99.5255 29.4935C99.5341 29.5533 99.4998 29.5959 99.4398 29.5959C99.4484 29.7325 99.5255 29.8008 99.654 29.7922L100.014 29.7581L101.89 29.5959L102.601 29.4423C102.61 29.5021 102.635 29.5362 102.695 29.5277L103.038 29.3997L103.681 29.3485C104.177 29.3058 104.169 29.2717 105.248 29.101C105.24 29.0327 105.266 29.0071 105.317 28.9986L105.325 29.0924C107.082 28.7937 107.193 28.7767 107.476 28.6828L107.502 28.734C107.938 28.6316 107.69 28.6572 107.81 28.5719C107.819 28.6487 107.844 28.6828 107.887 28.6828L108.196 28.6572L108.178 28.4268L107.553 28.4183L107.544 28.4012C107.519 28.4097 107.502 28.4097 107.476 28.4183H107.39V28.4353C106.97 28.5207 106.962 28.4609 106.688 28.4865L105.12 28.5719L105.111 28.4609L105.985 28.3414L106.302 28.3158L106.482 28.1878L106.491 28.2988C107.724 28.1964 108.161 28.5036 113.867 27.2918C114.175 27.2662 114.15 27.0101 114.347 26.481C114.244 26.4896 114.141 26.464 114.047 26.4128C113.576 26.592 113.327 26.5066 112.419 26.6517C112.342 26.6602 112.282 26.592 112.256 26.4554L112.248 26.3615L113.122 26.3871C113.284 26.3701 113.601 26.3445 114.073 26.0799C114.073 26.1567 113.901 26.1994 114.004 26.1909ZM71.8191 26.8651L71.4165 26.8992C71.3993 26.737 71.6135 26.1226 72.059 25.0729L72.3246 25.0473C72.3332 25.2948 72.1704 25.9007 71.8191 26.8651ZM72.3075 24.9193L72.2989 24.8084C72.2903 24.6718 72.376 24.5779 72.5645 24.5353L72.5731 24.6462C72.5816 24.8083 72.4959 24.9022 72.3075 24.9193ZM77.662 29.0412L77.6705 29.1522L77.0023 29.2119L76.9937 29.101L77.662 29.0412ZM76.8567 28.973C76.8652 29.1095 76.6596 29.2631 76.2141 29.4167L75.3917 29.357L75.1261 29.3826L75.1004 29.1351L76.8567 28.973ZM82.2711 4.14744L81.8685 4.18157L81.8599 4.04503C81.8513 3.90848 81.9284 3.81461 82.0998 3.77194L82.2454 3.76341L82.5196 3.87435C82.5281 4.03649 82.451 4.13037 82.2711 4.14744ZM88.3967 2.95267L88.5252 2.94414L88.5423 3.19162L88.1739 3.22576C88.1654 3.08922 88.2339 2.99534 88.3967 2.95267ZM86.8546 3.49032L86.2463 3.42204L86.2378 3.3111C87.0345 3.24283 87.3001 3.15749 87.7884 3.02094C87.797 3.11482 87.8827 3.14895 88.0369 3.13189L88.054 3.37937L87.8141 3.40498C87.6256 3.42204 87.4629 3.39644 87.3258 3.31964C87.1801 3.41351 87.0259 3.47325 86.8546 3.49032ZM87.6171 5.70063L87.6085 5.58969L88.5937 5.49582L88.6023 5.60676L87.6171 5.70063ZM88.6708 4.84723L88.6623 4.71068L89.142 4.66801L89.1506 4.80456L88.6708 4.84723ZM88.7822 3.17456L88.6537 3.18309L88.7651 2.91854L89.8617 2.81613L89.8702 2.95267C89.5875 2.97827 89.2191 3.05508 88.7822 3.17456ZM89.3391 5.52995L89.322 5.28246L89.8017 5.23979C89.9645 5.22273 90.0502 5.29953 90.0587 5.47021L89.3391 5.52995ZM92.2434 1.58723L91.6265 1.75791L91.5152 1.76644C91.2239 1.79204 90.8469 1.78351 90.4014 1.74084C91.1982 1.68963 91.9606 1.6299 92.2434 1.58723ZM91.5837 4.31812L91.5923 4.42906L90.7441 4.50587L90.7355 4.39493L91.5837 4.31812ZM92.9716 4.97524C92.963 4.87283 92.8002 4.80456 92.4661 4.77042L91.618 5.00938L90.9669 5.03498C90.8212 4.93257 90.7441 4.8643 90.7355 4.81309L91.4894 4.85576L93.1858 4.58267L94.051 4.61681L94.0596 4.75335C93.6313 4.79602 93.2714 4.87283 92.9716 4.97524ZM101.702 2.73079C101.804 2.73932 101.873 2.73932 101.899 2.73932C102.198 2.44916 102.533 2.21875 102.918 2.0566C102.61 3.40498 102.13 4.40346 101.47 5.05205L100.99 4.76189C101.393 3.74634 101.633 3.07215 101.702 2.73079ZM100.228 5.24833L100.348 5.23979C100.185 5.54702 100.04 5.70917 99.9196 5.7177L99.8939 5.39341C99.971 5.39341 100.082 5.3422 100.228 5.24833ZM99.277 7.50985C99.5084 6.58817 99.7311 6.0676 99.9367 5.93105L99.9453 6.042C99.8253 6.8954 99.6369 7.3477 99.3884 7.38184L99.4313 7.91948C99.2256 8.20964 99.1314 8.43153 99.14 8.60221L99.02 8.61074L98.9515 7.86828C99.0886 7.85121 99.1999 7.73174 99.277 7.50985ZM98.9087 8.73875C98.9172 8.86676 98.8316 9.16545 98.6602 9.62629L98.5403 9.63483L98.5146 9.31053C98.6773 8.93504 98.8144 8.74729 98.9087 8.73875ZM91.9949 28.7255L91.9864 28.6316L92.2091 28.6145L92.2348 28.9388C92.1149 28.9474 92.0292 28.8791 91.9949 28.7255ZM101.873 28.9815C101.864 28.9047 101.83 28.8706 101.753 28.8791L101.196 28.9303L101.188 28.8194H101.239L102.558 28.7084L102.567 28.8194C102.181 28.8364 101.95 28.8962 101.873 28.9815ZM101.213 28.7084C101.265 28.734 101.239 28.7596 101.213 28.7767C101.188 28.7681 101.153 28.7425 101.213 28.7084ZM101.282 27.1723L100.545 27.232L100.536 27.1211L101.205 27.0613L101.787 26.9163C101.796 26.9845 101.83 27.0101 101.907 27.0016C102.601 26.8821 102.533 26.848 102.867 26.8224C102.978 26.8139 103.047 26.8821 103.055 27.0187L101.282 27.1723ZM103.861 26.9504C103.449 26.9077 103.424 26.8736 103.132 26.8992L103.124 26.8053L103.783 26.7456L103.792 26.8395C103.723 26.848 103.972 26.8651 103.861 26.9504ZM103.912 26.8309L103.903 26.737L104.263 26.7029L104.272 26.7968L103.912 26.8309ZM104.709 26.7626L104.7 26.6688C104.76 26.6602 104.846 26.6176 104.957 26.5322C105.137 26.5152 105.231 26.6346 105.248 26.7712L104.709 26.7626ZM105.728 26.6346L105.72 26.5237L106.157 26.4896L106.165 26.6005L105.728 26.6346ZM106.336 26.5834C106.328 26.4554 106.379 26.3786 106.491 26.3615L106.636 26.5493C106.628 26.4896 106.653 26.4554 106.705 26.4469L106.816 26.6517L106.336 26.5834ZM99.8682 29.3655L99.851 29.1522L99.7825 29.1607L99.7996 29.3741L99.8682 29.3655ZM114.921 25.4825C114.989 25.4399 115.024 25.3972 114.861 25.3716C114.784 25.4569 114.946 25.4825 114.775 25.4911L114.784 25.5679C114.801 25.5508 114.844 25.5252 114.878 25.4996L114.784 25.5764V25.5849L114.604 25.8154L114.964 25.6874H115.006L114.989 25.474L114.921 25.4825ZM115.546 25.969L115.478 25.9775L115.495 26.1909L116 26.1482C115.992 26.0117 115.658 25.969 115.546 25.969ZM114.767 25.5935L114.775 25.5849V25.5764C114.775 25.5764 114.767 25.5849 114.767 25.5935Z" fill="black"/>
<path d="M81.8768 9.79708L81.8854 9.93362L82.1681 9.90802C82.1595 9.82268 82.1938 9.68614 82.2538 9.51546L82.2281 9.26797C82.1081 9.2765 81.9882 9.45572 81.8768 9.79708ZM79.1696 3.31121L79.1439 3.06372L78.7412 3.09786L78.7669 3.34534L79.1696 3.31121ZM71.3134 17.9642C71.2963 17.7337 70.5767 16.8377 69.1545 15.2589C69.1288 14.9687 69.6171 14.5335 70.6195 13.9617L73.481 11.4783C74.1235 10.6676 74.5005 9.35331 74.6118 7.52702L74.5776 7.10886C74.4662 5.84582 73.5495 4.83027 71.8103 4.05367C70.7823 3.36241 68.9318 2.97838 66.2588 2.91011C64.0485 3.09786 61.1613 3.88299 57.6059 5.27404C56.6293 5.97383 55.5155 6.67362 54.2647 7.37341L54.2818 7.58676C54.3589 7.57823 54.4789 7.53556 54.616 7.44168C54.7616 7.42462 54.8473 7.49289 54.8558 7.62943L55.07 7.51849L55.1728 7.50996L55.1814 7.60383C55.19 7.71477 54.4189 8.32069 52.8597 9.40451L52.9796 9.6264L52.8768 9.63493L52.6198 9.54106C52.6284 9.61786 52.517 9.66907 52.3028 9.68614L52.3114 9.78001L52.5598 10.0872C52.4827 10.0958 52.3628 10.0616 52.2 10.0019C51.8402 10.036 51.4889 10.2238 51.1377 10.5822L51.2833 9.95069C51.8059 7.70624 52.1657 5.71781 52.3542 3.99393L52.3285 3.88299C51.9687 3.65257 51.6174 3.32828 51.2919 2.91864C51.3005 2.65409 51.3005 2.50047 51.2919 2.46634L51.2662 2.37246L51.1634 2.39807C50.0325 4.08781 47.8564 6.97231 44.6266 11.0516C42.1678 13.9532 40.8999 15.5661 40.8228 15.8904C39.8204 16.923 39.3406 17.546 39.392 17.7593C39.1264 17.93 39.0151 18.1007 39.0579 18.2884C38.9808 18.3055 38.9294 18.2799 38.9123 18.2031C38.4839 18.8944 37.8499 19.3381 37.0018 19.5344L36.1108 19.7392C35.9908 19.7648 35.9309 19.8502 35.9394 19.9953L35.9651 20.1062L36.2993 20.0294L36.325 20.1233L35.5711 20.4134L34.2346 20.7206L33.5321 20.7633C33.4292 20.8657 34.0889 20.7548 33.8319 20.8145L32.9581 21.0193C32.4269 21.1388 32.1356 21.0962 32.0842 20.8828L31.9814 20.9084C31.9985 21.0023 32.0071 21.0705 31.99 21.1303L31.9386 20.9169L31.236 21.0791C31.1846 20.7548 30.2337 19.5771 28.3917 17.546C28.3575 17.1534 29.0086 16.5816 30.3365 15.8392L34.0889 12.5536C34.9285 11.4783 35.4254 9.75441 35.5882 7.38195L35.5368 6.82723C35.3911 5.15456 34.1746 3.80618 31.8872 2.76503C30.5335 1.85189 28.1004 1.36545 24.5879 1.28864C21.675 1.53613 17.8712 2.56875 13.1935 4.36943C11.9084 5.29964 10.4434 6.22132 8.79852 7.13446L8.82423 7.42462C8.9356 7.41608 9.08124 7.35634 9.26115 7.25393C9.44963 7.23687 9.55244 7.32221 9.56957 7.49289L9.86086 7.33074L10.0065 7.32221L10.0151 7.45875C10.0236 7.5953 9.00414 8.38896 6.93944 9.83975L7.10222 10.0958L6.95657 10.1043L6.63959 9.99336C6.64815 10.0787 6.50251 10.1384 6.20266 10.164L6.21979 10.3177L6.56248 10.6932C6.45111 10.7017 6.2969 10.6676 6.09985 10.5993C5.43161 10.659 4.7805 11.1369 4.13796 12.0415L4.30074 12.2976C4.85761 11.7855 5.18316 11.5295 5.2774 11.521L5.31167 11.9391C5.21743 11.9477 5.07179 12.0074 4.87474 12.1098L5.226 12.6389C5.90281 11.9135 6.64816 11.2905 7.46204 10.77C7.8647 10.8724 8.07888 11.0004 8.08745 11.1369L8.39587 11.1113C10.6062 9.48132 12.7908 8.30362 14.9583 7.57823L14.984 7.86839C14.5814 8.46577 14.3072 8.77299 14.1616 8.79006C14.1787 8.99488 14.2473 9.17409 14.3758 9.32771C14.41 9.69467 13.4248 12.1695 11.4287 16.7438C6.8966 27.3772 3.09276 35.2456 0 40.3319C0.00856721 40.4343 0.0685382 40.5708 0.179912 40.7415C0.942394 40.5623 1.42216 40.3745 1.62777 40.1953L1.79055 40.1783L1.81625 40.4684L2.09897 40.4428L2.39025 40.2807C2.39882 40.366 2.49306 40.4087 2.6901 40.3916L2.71581 40.6818C2.74151 40.9634 2.57873 41.3901 2.23604 41.979C1.92762 42.3288 1.5935 43.0628 1.24225 44.1807L1.25081 44.3173L1.53353 44.2917C2.76721 42.9177 3.70103 41.5693 4.34358 40.2551C7.9418 39.2054 10.6833 38.1728 12.5852 37.1572C14.4957 36.9951 15.9521 36.4916 16.9459 35.6638L16.9288 35.5101L16.2092 35.7235L16.0464 35.7406L16.0292 35.587C17.4343 35.3736 18.4024 35.0664 18.9421 34.6397C21.675 32.5403 23.7397 31.0554 25.1362 30.1764C28.0062 28.077 29.8739 26.0288 30.722 24.0404C30.8762 24.0063 31.0304 23.9721 31.2018 23.9295C31.6044 23.9124 31.8272 23.9038 31.8872 23.8868C31.87 23.81 31.9043 23.7673 31.9814 23.7502C32.6239 23.682 32.3155 23.7929 32.7267 23.699L33.8062 23.4515L33.9861 23.4089L33.9004 23.4601C34.0204 23.4771 34.1489 23.4686 34.2945 23.4345L34.3716 23.7502L29.4626 31.5247L28.3746 32.8817L27.8434 34.6567L27.9462 34.6311L28.4774 34.4093L28.3061 35.1005L28.3575 35.3053L28.5031 35.4845C28.4346 35.5016 28.4089 35.5443 28.426 35.6211L28.4517 35.732L28.6745 35.6808C29 35.3992 29.1371 35.1432 29.0857 34.9128C29.4369 34.9725 29.6682 34.9981 29.7882 34.964L29.8139 35.0749C29.5997 35.1261 29.4883 35.2968 29.4712 35.587L29.4969 35.6979L29.6168 35.6723C31.3988 33.7351 35.7681 27.1041 39.2721 22.6067C39.1607 22.1202 40.9855 21.446 44.7551 20.5756L44.875 20.55C45.0121 21.1388 44.7208 22.564 44.0012 24.8255C43.5386 26.191 43.3158 26.942 43.3501 27.0614C42.7504 28.8792 42.4677 29.8606 42.5019 30.0142L41.1654 34.3751C40.3002 36.611 39.6405 38.9579 39.1778 41.4328C39.255 41.4157 39.3749 41.4242 39.5462 41.4669L39.7347 41.3048C39.7519 41.3816 39.8033 41.4072 39.8804 41.3901L39.8033 41.0743L40.3858 41.0573C40.5572 41.0146 40.7028 40.8013 40.8228 40.4087C40.7971 39.8198 40.917 39.5041 41.1826 39.4358C41.5424 38.0362 41.7651 37.3364 41.8422 37.3108C42.1764 35.9198 42.4248 35.1261 42.5876 34.9298C43.0931 33.1206 43.4615 32.1904 43.7013 32.1307L43.7527 32.3526L43.3843 33.2998C42.7418 36.1417 42.0907 38.3861 41.431 40.0332L41.6195 40.8525L41.7394 40.8269C43.3329 37.4132 45.629 30.6543 48.6189 20.55C48.7046 19.6624 49.1329 18.9712 49.8954 18.4847L49.7241 18.3055L49.6984 18.2116C50.0411 18.1348 50.281 17.9983 50.418 17.8105C50.4009 17.7337 50.101 17.6228 49.5185 17.4692L51.0092 11.1028C51.3347 10.8126 51.5232 10.659 51.5832 10.659L51.6089 10.9833C51.5318 10.9918 51.4118 11.0345 51.2747 11.1284L51.5575 11.5295C52.0715 10.9748 52.6284 10.4969 53.2366 10.0958C53.5451 10.1811 53.6993 10.2835 53.7164 10.3859L53.9391 10.3689C55.6355 9.13142 57.2975 8.24388 58.9338 7.70624L58.951 7.91959C58.6511 8.37189 58.4455 8.60231 58.3341 8.61085C58.3513 8.76446 58.3941 8.901 58.4712 9.02048C58.4969 9.3021 57.7601 11.1796 56.2523 14.6615C52.8083 22.7262 49.9211 28.6914 47.5737 32.5659C47.5823 32.6427 47.6337 32.7451 47.7279 32.8817C48.3019 32.7451 48.6703 32.6 48.816 32.4635L48.9188 32.455L48.9359 32.6683L49.1758 32.6512L49.39 32.5403C49.3985 32.6 49.4756 32.6256 49.6213 32.6171L49.6384 32.8475C49.6555 33.0523 49.5356 33.3766 49.27 33.8204C49.0216 34.085 48.7646 34.6397 48.4904 35.4845L48.499 35.5955L48.7217 35.5784C49.6555 34.5373 50.3666 33.5132 50.855 32.5062C53.5879 31.704 55.6697 30.9274 57.109 30.1593C58.574 30.0313 59.6792 29.6558 60.4331 29.0243L60.4245 28.9133L59.8677 29.0755L59.7477 29.084L59.7392 28.9731C60.8015 28.8195 61.5468 28.5805 61.9495 28.2647C64.0228 26.6774 65.5906 25.5424 66.6529 24.8767C69.9598 22.4787 71.5019 20.1745 71.3134 17.9642ZM70.748 18.1092L70.8251 18.9712C70.7223 19.1845 70.6109 19.2955 70.5081 19.304L70.3796 17.8361C70.6195 17.9215 70.7394 18.0068 70.748 18.1092ZM5.87711 11.1625L5.73146 11.1711L5.70576 10.9065L6.2969 10.8553L6.30547 10.9918C6.21123 11.0004 6.06558 11.0516 5.87711 11.1625ZM2.98996 39.9308C2.64727 39.7772 2.33885 39.7174 2.07326 39.743L2.039 39.3249C2.02186 39.1627 2.1161 39.0518 2.32171 39.0091C2.51019 38.992 2.62157 39.1286 2.6387 39.4017C3.1356 38.7958 3.40975 38.4885 3.46115 38.48L3.77814 38.608C3.67533 39.4614 3.40975 39.8966 2.98996 39.9308ZM33.8405 7.78305C33.6948 7.80011 33.4035 7.34781 32.9838 6.45174L32.9581 6.18718C33.2322 6.16158 33.5149 6.60535 33.8148 7.51849L33.8405 7.78305ZM33.4293 4.59985L33.3093 4.88147L29.1199 3.14053C31.9129 3.2344 33.3521 3.72084 33.4293 4.59985ZM15.738 19.7307L15.1468 19.7819L15.1211 19.5174L15.7123 19.4661L15.738 19.7307ZM15.2582 10.6419L15.4038 10.6334L15.4381 11.0516C15.301 11.0601 15.1211 11.2649 14.8984 11.6575L14.8727 11.3673C15.1383 11.0516 15.2753 10.8126 15.2582 10.6419ZM14.016 13.5606L14.0674 14.1153L13.9217 14.1238L13.8703 13.5691L14.016 13.5606ZM13.3648 14.6017L13.6476 14.5761C13.6219 15.037 13.4934 15.2845 13.262 15.3015L13.1164 15.3101C13.2963 15.0028 13.382 14.7639 13.3648 14.6017ZM12.8765 16.0525L13.0393 16.0355L13.0479 16.172L12.7823 16.6158L12.4996 16.6414L12.491 16.5048C12.7737 16.4792 12.9022 16.3342 12.8765 16.0525ZM12.3968 17.3582L12.3111 18.058L12.1654 18.0666L12.1055 17.3753L12.3968 17.3582ZM7.59055 30.97C7.40207 31.9258 7.19646 32.4123 6.98228 32.4294L6.97371 32.2928C6.92231 31.8234 7.12792 31.3797 7.59055 30.97ZM6.70813 32.8731L6.71669 33.0097C6.73383 33.1974 6.64816 33.3084 6.45968 33.3169L6.45111 33.1804C6.43397 33.0182 6.51965 32.9158 6.70813 32.8731ZM6.45111 36.8244L6.8966 36.7817L6.91374 36.9353C6.80236 36.9439 6.65672 37.0036 6.47681 37.106L6.19409 37.1316C6.17696 36.9865 6.2712 36.8756 6.45111 36.8244ZM19.1306 32.9243C16.629 34.1532 15.1554 34.9896 14.7185 35.4248C12.0112 36.3635 10.6662 36.9439 10.6919 37.1743C8.28449 38.1216 6.69956 38.8214 5.93708 39.2566C5.75716 39.2737 5.50015 39.2054 5.15746 39.0518C5.11462 38.5653 5.33737 38.1728 5.80857 37.857C6.22836 37.8229 6.63102 37.8826 7.01655 38.0448C7.46204 37.8143 8.24166 37.5583 9.34683 37.2852L9.32112 36.9951L8.43013 37.0719C8.54151 36.9183 9.39823 36.5172 11.0089 35.8686L11.4544 35.8259L11.4629 35.9625C10.7004 36.0307 10.2807 36.2526 10.1864 36.6537C10.2035 36.8329 10.3064 36.9097 10.4948 36.8927C11.0688 36.5342 11.3516 36.3209 11.343 36.2611C12.431 36.0563 15.4381 34.4861 20.3643 31.5589L20.39 31.8234C20.3985 31.9514 19.9787 32.3099 19.1306 32.9243ZM11.5743 35.3992C12.2939 35.3395 12.9108 35.0493 13.4248 34.5458C13.6304 34.5287 13.7418 34.6055 13.7504 34.7847C13.3991 34.8189 12.7223 35.109 11.7371 35.6723L11.5914 35.6808L11.5743 35.3992ZM23.7654 26.0715L19.9873 29.0584C17.1773 30.8932 15.6694 31.8149 15.4467 31.832C10.9746 34.2812 8.19025 35.5528 7.11078 35.6467L6.94801 35.6638C7.08508 35.1603 9.07268 31.1066 12.9279 23.4771C14.6242 23.3321 17.2972 22.5469 20.9383 21.1132L21.8293 21.0364C23.6712 20.8743 25.0505 21.2327 25.9586 22.0861L26.01 22.6408C25.3332 24.5951 24.5793 25.7387 23.7654 26.0715ZM16.3805 21.9325L16.9888 21.8813L16.9973 22.0178L16.3891 22.069L16.3805 21.9325ZM24.922 20.4902L25.3675 20.4476C25.7787 20.6438 25.9929 20.8145 26.01 20.9681L26.0186 21.1047C25.6245 21.1388 25.2561 20.934 24.922 20.4902ZM26.13 13.6374C25.7359 14.1068 24.6564 14.909 22.8916 16.0355C22.309 16.0867 20.1415 16.923 16.3891 18.5615C16.2006 18.4762 16.0035 18.4421 15.7894 18.4591L15.7637 18.1946C15.7208 17.6569 15.9607 16.9827 16.4919 16.1635C16.7832 14.6273 17.1001 13.7483 17.4514 13.535L20.5784 6.52854C20.5442 6.09331 21.2124 5.76048 22.5832 5.53006L23.0287 5.48739L23.0629 5.88849C24.408 5.68367 25.2476 5.56419 25.5731 5.53859C28.0576 5.32524 29.3513 5.82875 29.4541 7.03205L29.7368 7.00645L29.6768 6.29812L29.9852 6.27252C30.7134 6.67362 31.1075 7.16006 31.1589 7.73184C31.1932 8.12441 30.979 8.61085 30.525 9.19116C30.3365 9.20823 30.2251 9.07169 30.208 8.7986L29.8996 8.8242L29.831 9.6776C28.5716 11.5551 27.655 12.5194 27.0895 12.5706C26.5755 13.279 26.2585 13.6289 26.13 13.6374ZM28.049 18.5445C27.792 18.3738 27.5864 18.297 27.4322 18.3055L27.3979 17.8874L27.6807 17.8617L28.3061 18.2287C28.3318 18.425 28.2461 18.5274 28.049 18.5445ZM30.0366 20.8913C30.3108 21.0023 30.4736 21.1217 30.5078 21.2327L30.3708 21.2668L30.3793 21.2754C30.3536 21.2754 30.3194 21.2839 30.2937 21.2924L30.088 21.4546L30.0366 20.8913ZM30.2251 22.069L30.1994 21.9581L30.5592 21.8727L30.5849 21.9837L30.2251 22.069ZM31.0904 23.0334C31.4588 22.9736 31.6387 22.948 32.3241 22.7944L32.3498 22.9054L31.0476 23.2041C31.0647 23.1443 31.0818 23.0846 31.0904 23.0334ZM32.3584 23.571C31.8101 23.6222 31.93 23.554 31.0561 23.7502L31.0304 23.6393L32.127 23.2894L32.6496 23.1699L32.701 23.3747C32.4612 23.4259 32.6325 23.4259 32.3584 23.571ZM33.5149 23.2979C33.3864 23.3321 33.2836 23.2723 33.2236 23.1273L33.5578 23.0504C33.7034 23.0163 33.7976 23.076 33.8319 23.2211L33.5149 23.2979ZM36.6505 19.9355L36.6248 19.8246L37.1646 19.6966L37.216 19.9014L36.6505 19.9355ZM40.0003 40.4002C40.0346 40.2465 40.0431 40.1356 40.026 40.0588L40.1459 40.0332C40.2916 39.9991 40.3773 40.0503 40.4115 40.1868L40.4372 40.2977L40.0003 40.4002ZM42.3477 20.8145L42.1078 20.7719C41.7223 20.9255 41.3968 21.0364 41.1312 21.0962L40.9084 21.1474C40.7799 21.1815 40.6771 21.1303 40.6257 20.9937L42.1935 20.6353L42.7075 20.3964L42.8789 20.5926C42.6304 20.6438 42.4505 20.7207 42.3477 20.8145ZM43.5557 20.4305L43.53 20.3196C43.6071 20.3025 43.7099 20.2427 43.8213 20.1318L44.935 19.8758L44.9607 19.9867C44.3696 20.1318 43.8984 20.2769 43.5557 20.4305ZM43.727 18.186C43.6499 18.2031 43.5471 18.2714 43.4186 18.3738C43.4015 18.297 43.2473 18.297 42.956 18.3653C42.9046 18.1519 43.727 17.8532 45.4319 17.4606L45.6718 17.4094L45.7232 17.6143C44.5238 17.9642 43.8555 18.1604 43.727 18.186ZM46.7256 14.9602C46.6056 16.3171 46.1259 17.0851 45.2777 17.2814L45.252 17.1705L44.4981 17.4606L44.164 17.5375C43.9926 17.5801 43.8384 17.5716 43.7013 17.5289L43.6328 17.2302C43.6071 17.1193 44.6951 15.6173 46.9055 12.7328L47.1625 12.7755C47.2567 13.168 47.1111 13.8934 46.7256 14.9602ZM52.0287 10.4371L51.9259 10.4457L51.9087 10.2323L52.3542 10.1896L52.3628 10.3006C52.2857 10.3177 52.1743 10.3603 52.0287 10.4371ZM49.844 32.2928C49.587 32.1733 49.3557 32.1221 49.1586 32.1392L49.1329 31.8149C49.1244 31.704 49.1929 31.6272 49.3386 31.5845C49.4842 31.5674 49.5699 31.6698 49.587 31.8917C49.9554 31.4223 50.161 31.1834 50.2038 31.1834L50.4352 31.2773C50.3495 31.9258 50.1524 32.2672 49.844 32.2928ZM73.2668 7.88545C73.1554 7.89399 72.9412 7.55263 72.6071 6.86137L72.59 6.64802C72.8041 6.63095 73.0269 6.96378 73.2496 7.6465L73.2668 7.88545ZM72.9584 5.44472L72.8555 5.6666L69.6857 4.34383C71.8018 4.4121 72.8984 4.77906 72.9584 5.44472ZM59.5164 16.9401L59.0709 16.9827L59.0538 16.7694L59.4993 16.7267L59.5164 16.9401ZM59.148 10.036L59.268 10.0275L59.2937 10.3518C59.1823 10.3603 59.0452 10.5139 58.8824 10.8126L58.8653 10.5993C59.0623 10.3518 59.1566 10.164 59.148 10.036ZM58.2142 12.2549L58.2485 12.6731L58.1285 12.6816L58.0942 12.2634L58.2142 12.2549ZM57.7087 13.0485L57.9315 13.0315C57.9058 13.3899 57.8115 13.5777 57.6488 13.5947L57.5288 13.6033C57.6573 13.3643 57.7173 13.1766 57.7087 13.0485ZM57.3489 14.1409L57.4517 14.1324L57.4603 14.2433L57.2632 14.5847L57.0405 14.6017L57.0319 14.4908C57.2632 14.4737 57.366 14.3543 57.3489 14.1409ZM56.9891 15.1309L56.912 15.677L56.8092 15.6856L56.7663 15.1479L56.9891 15.1309ZM53.3309 25.4826C53.1852 26.1995 53.031 26.5665 52.8682 26.5835L52.8597 26.4897C52.834 26.1312 52.9882 25.7899 53.3309 25.4826ZM52.6541 26.9249L52.6626 27.0188C52.6798 27.1724 52.6112 27.2577 52.457 27.2663L52.4485 27.1553C52.4399 27.0444 52.5084 26.9676 52.6541 26.9249ZM52.4656 29.9289L52.8083 29.9033L52.8168 30.0142C52.7397 30.0228 52.6198 30.0654 52.4827 30.1422L52.26 30.1593C52.2514 30.0398 52.3199 29.963 52.4656 29.9289ZM62.0866 26.9676C60.2018 27.8978 59.0795 28.5293 58.7282 28.8536C56.6721 29.5705 55.6526 30.0142 55.6697 30.1934C53.8449 30.9188 52.6455 31.4394 52.0801 31.7722C51.943 31.7808 51.7459 31.7296 51.4889 31.6101C51.4547 31.2431 51.626 30.9444 51.9858 30.7225C52.3114 30.6969 52.6198 30.7396 52.9025 30.8591C53.2452 30.6884 53.8363 30.5007 54.6759 30.2873L54.6588 30.074L53.9649 30.1337C54.0505 30.0142 54.7102 29.707 55.9353 29.212L56.278 29.1864L56.2866 29.2803C55.704 29.3315 55.3784 29.5022 55.3099 29.8094C55.3185 29.9459 55.4041 30.0142 55.5498 29.9972C55.9781 29.7155 56.1838 29.5534 56.1838 29.5022C57.0062 29.3571 59.2851 28.1623 63.029 25.9264L63.0461 26.1398C63.0461 26.2251 62.7291 26.4982 62.0866 26.9676ZM56.3465 28.8451C56.9034 28.7939 57.3746 28.5805 57.7687 28.205C57.9143 28.1965 58 28.2562 58.0086 28.3928C57.7516 28.4184 57.2461 28.6317 56.4836 29.0413L56.3637 29.0499L56.3465 28.8451ZM65.6163 21.7533L62.7634 24.0404C60.6301 25.4314 59.4736 26.1312 59.2937 26.1483C55.901 28.0087 53.7935 28.9731 52.9625 29.0413L52.8425 29.0499C52.9454 28.6658 54.4617 25.5851 57.3917 19.799C58.6682 19.688 60.6901 19.0821 63.4659 17.9898L64.1598 17.93C65.5563 17.8105 66.6015 18.0836 67.2869 18.7408L67.3211 19.1589C66.7985 20.6268 66.2331 21.4887 65.6163 21.7533ZM60.0133 18.6127L60.4588 18.5701L60.4674 18.681L60.0219 18.7237L60.0133 18.6127ZM66.4987 17.5119L66.8414 17.4862C67.1584 17.6399 67.3211 17.7764 67.3297 17.8874L67.3383 17.9812C67.0384 18.0068 66.7557 17.8532 66.4987 17.5119ZM67.3982 12.3146C67.0984 12.6731 66.2845 13.2875 64.9566 14.1409C64.5111 14.1836 62.8662 14.8151 60.0219 16.044C59.8848 15.9928 59.7306 15.9757 59.5678 15.9843L59.5507 15.7709C59.5164 15.3613 59.6963 14.8492 60.0904 14.2262C60.3132 13.0485 60.5616 12.3914 60.8186 12.2378L63.2089 6.91257C63.1832 6.59681 63.6886 6.34079 64.7167 6.14451L65.0594 6.11891L65.0851 6.4432C66.096 6.28105 66.73 6.18718 66.987 6.16158C68.8718 5.99943 69.857 6.37493 69.9341 7.29661L70.1569 7.27954L70.114 6.76749L70.3368 6.75043C70.8851 7.04912 71.1764 7.40755 71.2106 7.83425C71.2364 8.14148 71.0821 8.51697 70.7566 8.95221C70.6109 8.96928 70.5253 8.86687 70.5081 8.64498L70.2854 8.66205L70.2169 9.3021C69.2659 10.7444 68.5719 11.4868 68.135 11.521C67.7495 12.0415 67.5096 12.3061 67.3982 12.3146ZM68.4006 15.8648L68.3749 15.5405L68.5976 15.5234L69.0774 15.8136C69.086 15.9501 69.0174 16.0269 68.8718 16.044C68.6662 15.916 68.512 15.8562 68.4006 15.8648ZM28.5202 36.594L28.2975 36.6452L28.109 36.8073C28.1433 36.9439 28.229 36.9951 28.3746 36.9609C28.5202 36.9268 28.5802 36.8415 28.5459 36.7049L28.5202 36.594ZM27.6721 34.9128L27.6978 35.0237C27.8434 34.9896 27.9034 34.9042 27.8691 34.7677L27.8434 34.6567C27.7064 34.6909 27.6464 34.7762 27.6721 34.9128ZM33.7377 23.5625L33.9004 23.4601C33.8662 23.4601 33.8405 23.4515 33.8148 23.443C33.7548 23.4601 33.7291 23.5028 33.7377 23.5625ZM33.7034 20.6182L33.9604 20.5585L33.909 20.3366L33.652 20.3964L33.7034 20.6182ZM94.2479 29.2376L93.6653 29.1694L93.5625 29.3912L93.5711 29.5022L97.0408 29.212L97.0237 28.9987L94.2479 29.2376ZM97.4177 28.9731L97.4349 29.1864H97.4691L97.452 28.9731H97.4177ZM111.973 27.0785L111.991 27.2919L112.368 27.3601L112.35 27.1468L111.973 27.0785ZM111.442 27.1212C108.838 27.7015 108.512 27.5991 107.964 27.6418L107.981 27.8551L108.221 27.838L108.35 27.8295L108.315 27.8039L108.598 27.693C111.177 27.4113 111.477 27.5137 111.451 27.2236L111.442 27.1212ZM95.8071 23.3491L95.5758 23.2723C95.3873 23.7758 95.2931 24.0745 95.3016 24.1599L95.3102 24.2537C95.4901 24.2452 95.6529 23.938 95.8071 23.3491ZM92.6715 21.6679L92.6629 21.557L92.543 21.5655L92.3288 21.7021L92.4488 21.9069C92.6115 21.8898 92.6886 21.813 92.6715 21.6679ZM99.4824 28.6829L99.4653 28.4696L99.3968 28.4781L99.4139 28.6914L99.4824 28.6829ZM113.618 25.5082L113.781 25.4912C113.875 25.4826 113.918 25.4058 113.91 25.2693L113.815 25.0645C113.224 25.1157 112.95 25.1413 112.47 25.4058L112.462 25.2949L111.751 25.3632C111.734 25.1498 111.674 25.0389 111.579 25.0474L111.211 25.0815C110.783 25.1157 110.577 25.0986 110.363 25.2608C110.354 25.184 110.329 25.1498 110.286 25.1498L109.874 25.184L109.635 25.3205C109.626 25.2437 109.6 25.2096 109.557 25.2096L109.412 25.3376L109.403 25.2266L108.829 25.184L108.692 25.1925L108.709 25.4058L109.001 25.4826L109.275 25.4656C109.369 25.5253 109.472 25.5424 109.592 25.5339L109.832 25.4144L109.84 25.5082C108.495 25.8411 108.504 25.7813 107.578 25.9349C107.476 25.8667 107.399 25.8325 107.347 25.8411L107.33 25.8581C107.227 25.8496 107.167 25.7813 107.159 25.6704L107.638 25.6107C107.673 25.6107 107.698 25.6448 107.964 25.696C108.35 25.5082 108.367 25.4314 108.572 25.4144L108.555 25.201C107.236 25.457 107.767 25.2864 106.113 25.4314L106.036 25.44L106.019 25.2266C108.144 24.9706 107.433 25.1157 108.161 24.9109C108.17 24.9877 108.195 25.0218 108.238 25.0218C108.324 24.9365 108.418 24.8938 108.529 24.8767L108.675 24.8682C109.42 24.8085 109.669 24.9535 111.142 24.5439L111.151 24.6378L111.391 24.5183L111.614 24.5012C111.596 24.2879 111.922 24.2537 112.033 24.2452L112.016 24.0148C109.429 24.5354 108.752 24.3903 108.033 24.5951L108.024 24.5012C107.347 24.6207 107.321 24.5695 107.15 24.578C107.099 24.5866 107.022 24.6292 106.936 24.7146C106.927 24.6378 106.902 24.6036 106.85 24.6036C106.825 24.6036 106.816 24.6122 106.807 24.6122L104.614 24.9706C104.606 24.9109 104.58 24.8767 104.529 24.8853C103.389 25.1242 103.698 25.1669 102.173 25.3034C102.104 25.312 102.01 25.3461 101.89 25.4229C101.881 25.3632 101.847 25.329 101.77 25.3376L100.836 25.4144L100.211 25.568C100.202 25.5082 100.168 25.4741 100.091 25.4826C99.7395 25.5765 99.431 25.6363 99.1826 25.6533H99.1655C99.0112 25.6704 99.2426 25.6107 99.1226 25.5595L98.9341 25.6704C98.66 25.696 98.8056 25.6533 97.8632 25.6619C96.2098 25.8667 96.3897 25.8923 96.2098 25.9008L95.5929 25.8581C95.6015 25.9179 95.5672 25.9606 95.4987 25.9606C94.7962 25.8667 94.4364 25.7557 94.4278 25.6277C94.522 24.9621 94.6848 24.6207 94.9161 24.6036L95.0361 24.5951L94.9333 24.817L95.0532 24.8085C95.2759 24.689 95.3788 24.578 95.3702 24.4756L95.353 24.2452L95.1303 24.2623L95.1132 24.0489C95.096 23.8868 95.1217 23.7417 95.1817 23.6222L95.6872 22.8115L95.7043 23.0248L95.9442 23.0078L95.927 22.7944L95.79 22.5981C95.9699 22.4445 96.107 22.3592 96.2183 22.3507L96.2098 22.2397L95.8842 22.2653L95.8585 21.941C96.5096 20.5926 96.818 19.8075 96.8009 19.5856L97.0322 19.6795C97.1779 19.671 97.2464 19.5856 97.2378 19.432L97.0151 19.4491L97.0065 19.3552C96.9894 19.1931 97.0237 19.0394 97.0922 18.9029C97.4434 18.5359 97.6062 18.169 97.572 17.7849C97.6405 17.7764 97.6748 17.8105 97.6833 17.8874C97.9832 17.7167 98.2145 17.2644 98.3858 16.5134C98.917 15.5576 99.6709 13.6459 100.656 10.787C102.541 5.73488 102.464 5.19723 102.729 4.00246L102.507 4.01953C102.524 4.17315 102.49 4.31822 102.421 4.45477C102.267 4.39503 102.147 4.36089 102.061 4.36943L102.053 4.27556C102.018 3.84032 102.198 3.31974 102.609 2.70529L102.712 2.69676L102.901 3.43068L103.124 3.41362C103.115 3.36241 103.175 3.07225 103.295 2.53461C103.286 2.42367 103.201 2.3554 103.029 2.34686L102.815 2.48341C102.798 2.32979 102.807 1.92869 102.832 1.28864L102.721 1.29717C102.532 1.10943 102.438 0.955812 102.43 0.827802L101.204 0.947278C101.196 0.861938 101.153 0.733927 101.067 0.571781C101.059 0.460838 101.333 0.349896 101.898 0.238953L102.147 0.332828L102.378 0.196283C102.387 0.27309 102.43 0.307225 102.515 0.298691L102.747 0.162147C102.755 0.238953 102.798 0.273089 102.884 0.264555L102.995 0.256021L102.978 0.00853391C102.807 0.025602 102.352 0.0256021 101.633 0L101.401 0.153613L101.393 0.0170678C95.6443 0.48644 92.3802 0.750995 91.6006 0.827802C91.4978 0.836336 91.0951 0.827802 90.3841 0.810734C90.3926 0.904608 90.307 0.955813 90.1356 0.972881L89.8872 0.861938L89.0476 1.07529C88.8505 1.09236 88.5164 1.08382 88.0538 1.03262C87.9253 1.13503 87.7711 1.19477 87.5826 1.21183C87.4798 1.22037 88.8077 1.14356 90.0414 1.05822C89.9129 1.16063 89.7158 1.22037 89.4417 1.24597C89.2532 1.26304 89.0904 1.23744 88.9533 1.16063C88.7649 1.24597 88.1566 1.38251 87.1371 1.58733L86.8886 1.49346L82.8792 2.10791C82.725 2.0311 82.5451 2.0055 82.3395 2.02257C82.1253 2.03964 81.7654 2.11644 81.2686 2.25299L79.3324 3.05519L79.478 3.29414C79.5722 3.28561 79.7093 3.2344 79.8721 3.14053L80.5575 3.20027L80.4718 3.84032C79.8378 4.12194 79.4694 4.54011 79.3666 5.06922C78.4157 5.48739 77.9445 5.78608 77.9445 5.96529L77.953 6.07624L78.0987 6.0677L78.3557 5.93116L78.6556 6.28959L78.6984 6.78456C78.7155 6.93818 77.1135 10.2921 73.9093 16.8462C71.1335 23.1614 69.6771 26.6177 69.54 27.2407C68.5891 27.5052 68.0408 27.8892 67.878 28.4013C67.8951 28.5634 68.1779 28.6744 68.7262 28.717L68.7519 28.9645L68.5034 29.3742L68.5462 29.8691C68.5719 30.1252 69.2659 30.3214 70.6281 30.458C70.6195 30.3727 70.6623 30.3214 70.7566 30.3129C70.7823 30.6201 70.6966 31.2175 70.4996 32.1051L70.6452 32.0965C71.2106 31.3285 71.4762 30.7994 71.4505 30.5092L71.5705 30.5007C71.7075 30.4921 71.8532 30.6457 72.0245 30.9786C71.8532 31.0468 71.2535 32.4038 70.2254 35.0578L70.3711 35.2968L70.5167 35.2883C71.7761 32.1136 72.5643 30.3556 72.8898 30.0228C74.5433 29.8777 77.4047 29.5875 81.4656 29.1523L81.7226 28.9987C81.7312 29.084 81.7826 29.1267 81.8768 29.1181L82.1424 29.0925L82.3994 28.9389C82.408 29.0243 82.4594 29.0669 82.5536 29.0584L85.6293 28.7939C86.4431 28.7256 86.8287 28.4781 86.7944 28.0599C86.7858 27.949 87.2656 27.821 88.2337 27.6844C88.3279 27.6759 88.465 27.7015 88.6535 27.7612C88.6449 27.6844 89.1333 27.6076 90.1099 27.5223C90.1356 27.0102 90.2984 26.7372 90.5897 26.7115L90.564 26.4641C90.2898 26.4897 89.9814 26.5579 89.6216 26.6774C88.979 26.6433 88.5678 26.5921 88.3965 26.5323C88.2251 26.6262 88.0966 26.6774 88.0024 26.6859L85.8606 26.7542L85.6036 26.8908C85.595 26.814 85.5436 26.7798 85.4493 26.7884L85.3294 26.7969L85.0553 26.9334C85.0467 26.8566 84.8239 26.7969 84.3784 26.7372L84.1043 26.8993L83.5731 26.942L83.5646 26.8054C86.3232 26.5067 87.6854 26.1312 87.6511 25.6875C87.831 25.6704 87.9253 25.7557 87.9424 25.9349L88.7477 25.7301L88.722 25.4826L82.1167 25.6619C82.1253 25.7472 82.0824 25.7984 81.9882 25.8069L81.1829 25.7387C80.9773 25.7557 80.8059 25.8155 80.6688 25.9179L80.369 25.8069C79.538 25.8752 78.9211 25.9776 78.5099 26.1056C77.9445 26.063 77.3191 26.0715 76.6251 26.1312L75.143 26.2592L74.4576 26.1824C74.4233 25.7472 75.2715 23.6052 77.0192 19.7648C77.5247 18.4677 77.9873 17.6569 78.4328 17.3497C78.527 17.3412 78.6641 17.3753 78.8526 17.4521L79.9064 17.0937L80.4461 17.179C81.3542 17.1022 82.408 16.8462 83.616 16.4024C83.9158 16.3768 84.1386 16.3939 84.3013 16.4622L85.1067 16.2744L87.5055 16.0696C88.525 15.9843 89.6301 15.7624 90.8296 15.3954L90.8039 15.1479C90.3584 15.1906 90.1271 15.1138 90.1099 14.9346C90.0842 14.6017 89.7587 14.4652 89.1332 14.5164L89.1076 14.2689L89.7672 14.0812L91.4978 13.9361L91.4721 13.6886C91.4036 13.6971 91.0523 13.6886 90.4012 13.663L90.3755 13.3984L91.0437 13.3387C91.2237 13.3216 91.3008 13.2363 91.2836 13.0656C90.3841 13.0912 89.93 13.0485 89.9214 12.9291C83.6502 13.2363 80.5061 13.296 80.4889 13.0998C80.3947 13.1083 80.2662 13.168 80.0948 13.2704L79.9321 13.0144C81.5941 9.49839 82.5708 7.72331 82.8535 7.6977C82.8621 7.83425 82.7935 8.05613 82.6479 8.35483L82.6564 8.46577L82.922 8.44017C83.5817 6.8699 84.1386 6.05917 84.6012 6.02503C86.5716 5.85435 84.327 5.72634 88.5421 5.06922C88.7135 5.14603 88.8334 5.18016 88.9191 5.17163C90.5725 4.8388 92.8771 4.4889 95.8328 4.13048L95.8157 3.88299L94.2393 4.02807L94.2222 3.78058C94.4107 3.76351 94.5649 3.70377 94.6934 3.60137L94.7019 3.73791C94.7876 3.72938 94.9076 3.66964 95.0618 3.56723C95.3359 3.54163 95.5415 3.56723 95.6872 3.64404C96.2355 3.49896 96.681 3.41362 97.0065 3.37948L97.9917 3.28561C98.2316 3.13199 98.343 2.99545 98.3344 2.86744L98.3259 2.7565C98.0774 2.7821 97.7947 2.76503 97.4606 2.70529C97.452 2.56875 97.5206 2.47487 97.6833 2.4322L99.5167 2.26152L100.356 2.04817C100.365 2.14204 100.408 2.17618 100.476 2.17618C100.562 2.16765 100.682 2.10791 100.836 2.0055C100.879 2.01403 100.93 2.01403 100.973 2.02257C100.862 2.25299 100.733 2.58581 100.605 3.02105L100.365 3.03812C100.348 2.87597 100.305 2.73089 100.228 2.60288L100.108 2.61142C97.8804 8.79006 96.8866 11.666 94.8304 16.411C94.4535 17.6228 94.1365 18.297 93.8624 18.4421C93.8709 18.5786 93.9566 18.6469 94.1022 18.6298C94.1536 19.2272 94.0166 19.816 93.6824 20.3964C92.7315 23.1273 92.0975 24.6207 91.772 24.8938L91.9861 26.1824C91.9947 26.319 91.9262 26.3958 91.7805 26.4129L91.5578 26.4299C91.5235 26.0715 91.395 25.9008 91.1637 25.9264L91.0437 25.9349C90.7525 26.3873 90.5297 26.9078 90.3841 27.5137L90.6068 27.4967C90.9067 27.3004 91.0437 27.07 91.018 26.8054L91.4635 26.7628L91.7206 26.8566C91.5149 27.1809 91.4207 27.4369 91.4378 27.6332L91.5578 27.838L91.2665 28.5208L91.2751 28.6317C91.5321 28.6061 91.8148 28.6914 92.1146 28.8707C92.3203 28.8536 92.543 28.7597 92.7915 28.5976C93.0485 28.572 94.008 28.5634 95.6615 28.5634L96.4925 28.2818C97.5034 28.2733 97.6662 28.2989 98.54 28.2221L98.8999 28.1879L99.0884 28.0599L99.0969 28.1709C100.014 28.0941 100.074 28.1538 100.793 28.2391L100.802 28.3501L100.296 28.3928L100.313 28.6061C100.468 28.589 100.605 28.5464 100.716 28.4525C100.845 28.444 100.922 28.5122 100.93 28.6658C100.725 28.6829 100.493 28.7341 100.236 28.8195L100.014 28.7426C99.6624 28.8365 99.7395 28.8621 99.4996 28.8792L99.1483 28.8109C99.1569 28.8707 99.1226 28.9133 99.0626 28.9133C99.0712 29.0499 99.1483 29.1181 99.2768 29.1096L99.6367 29.0755L101.513 28.9133L102.224 28.7597C102.233 28.8195 102.258 28.8536 102.318 28.8451L102.661 28.717L103.303 28.6658C103.8 28.6232 103.792 28.589 104.871 28.4184C104.863 28.3501 104.888 28.3245 104.94 28.3159L104.948 28.4098C106.705 28.1111 106.816 28.0941 107.099 28.0002L107.124 28.0514C107.561 27.949 107.313 27.9746 107.433 27.8892C107.441 27.9661 107.467 28.0002 107.51 28.0002L107.818 27.9746L107.801 27.7442L107.176 27.7356L107.167 27.7186C107.142 27.7271 107.124 27.7271 107.099 27.7356H107.013V27.7527C106.593 27.838 106.585 27.7783 106.311 27.8039L104.743 27.8892L104.734 27.7783L105.608 27.6588L105.925 27.6332L106.105 27.5052L106.113 27.6162C107.347 27.5137 107.784 27.821 113.49 26.6091C113.798 26.5835 113.773 26.3275 113.97 25.7984C113.867 25.8069 113.764 25.7813 113.67 25.7301C113.199 25.9093 112.95 25.824 112.042 25.9691C111.965 25.9776 111.905 25.9093 111.879 25.7728L111.871 25.6789L112.744 25.7045C112.907 25.6875 113.224 25.6619 113.695 25.3973C113.695 25.4741 113.516 25.5168 113.618 25.5082ZM71.4334 26.1824L71.0307 26.2166C71.0136 26.0544 71.2278 25.44 71.6733 24.3903L71.9389 24.3647C71.9474 24.6122 71.7846 25.2181 71.4334 26.1824ZM71.9217 24.2367L71.9132 24.1257C71.9046 23.9892 71.9903 23.8953 72.1787 23.8526L72.1873 23.9636C72.1959 24.1257 72.1102 24.2196 71.9217 24.2367ZM77.2762 28.3586L77.2848 28.4696L76.6166 28.5293L76.608 28.4184L77.2762 28.3586ZM76.4709 28.2903C76.4795 28.4269 76.2739 28.5805 75.8284 28.7341L75.0059 28.6744L74.7403 28.7L74.7146 28.4525L76.4709 28.2903ZM81.8854 3.46482L81.4827 3.49896L81.4742 3.36241C81.4656 3.22587 81.5427 3.13199 81.714 3.08932L81.8597 3.08079L82.1338 3.19173C82.1424 3.35388 82.0653 3.44775 81.8854 3.46482ZM88.0109 2.27006L88.1395 2.26152L88.1566 2.50901L87.7882 2.54314C87.7796 2.4066 87.8482 2.31273 88.0109 2.27006ZM86.4688 2.8077L85.8606 2.73943L85.852 2.62848C86.6488 2.56021 86.9143 2.47487 87.4027 2.33833C87.4112 2.4322 87.4969 2.46634 87.6511 2.44927L87.6683 2.69676L87.4284 2.72236C87.2399 2.73943 87.0771 2.71382 86.94 2.63702C86.7944 2.73089 86.6402 2.79063 86.4688 2.8077ZM87.2313 5.01802L87.2228 4.90707L88.208 4.8132L88.2166 4.92414L87.2313 5.01802ZM88.2851 4.16461L88.2765 4.02807L88.7563 3.9854L88.7649 4.12194L88.2851 4.16461ZM88.3965 2.49194L88.268 2.50047L88.3793 2.23592L89.4759 2.13351L89.4845 2.27006C89.2018 2.29566 88.8334 2.37246 88.3965 2.49194ZM88.9533 4.84734L88.9362 4.59985L89.416 4.55718C89.5788 4.54011 89.6644 4.61692 89.673 4.7876L88.9533 4.84734ZM91.8576 0.904608L91.2408 1.07529L91.1294 1.08382C90.8381 1.10943 90.4612 1.10089 90.0157 1.05822C90.8124 1.00702 91.5749 0.947278 91.8576 0.904608ZM91.1979 3.6355L91.2065 3.74644L90.3584 3.82325L90.3498 3.71231L91.1979 3.6355ZM92.5858 4.29262C92.5773 4.19021 92.4145 4.12194 92.0804 4.08781L91.2322 4.32676L90.5811 4.35236C90.4355 4.24995 90.3584 4.18168 90.3498 4.13048L91.1037 4.17315L92.8 3.90006L93.6653 3.93419L93.6739 4.07074C93.2455 4.11341 92.8857 4.19021 92.5858 4.29262ZM101.316 2.04817C101.419 2.0567 101.487 2.0567 101.513 2.0567C101.813 1.76655 102.147 1.53613 102.532 1.37398C102.224 2.72236 101.744 3.72084 101.085 4.36943L100.605 4.07927C101.007 3.06372 101.247 2.38953 101.316 2.04817ZM99.8423 4.56571L99.9622 4.55718C99.7994 4.8644 99.6538 5.02655 99.5338 5.03508L99.5081 4.71079C99.5852 4.71079 99.6966 4.65959 99.8423 4.56571ZM98.8913 6.82723C99.1226 5.90556 99.3454 5.38498 99.551 5.24844L99.5595 5.35938C99.4396 6.21278 99.2511 6.66509 99.0027 6.69922L99.0455 7.23687C98.8399 7.52702 98.7457 7.74891 98.7542 7.91959L98.6343 7.92812L98.5657 7.18566C98.7028 7.16859 98.8142 7.04912 98.8913 6.82723ZM98.5229 8.05613C98.5315 8.18414 98.4458 8.48284 98.2745 8.94368L98.1545 8.95221L98.1288 8.62792C98.2916 8.25242 98.4287 8.06467 98.5229 8.05613ZM91.6092 28.0429L91.6006 27.949L91.8234 27.9319L91.8491 28.2562C91.7291 28.2647 91.6434 28.1965 91.6092 28.0429ZM101.487 28.2989C101.479 28.2221 101.444 28.1879 101.367 28.1965L100.81 28.2477L100.802 28.1367H100.853L102.173 28.0258L102.181 28.1367C101.796 28.1538 101.564 28.2135 101.487 28.2989ZM100.827 28.0258C100.879 28.0514 100.853 28.077 100.827 28.0941C100.802 28.0855 100.768 28.0599 100.827 28.0258ZM100.896 26.4897L100.159 26.5494L100.151 26.4385L100.819 26.3787L101.401 26.2336C101.41 26.3019 101.444 26.3275 101.521 26.319C102.215 26.1995 102.147 26.1654 102.481 26.1398C102.592 26.1312 102.661 26.1995 102.669 26.3361L100.896 26.4897ZM103.475 26.2678C103.064 26.2251 103.038 26.191 102.747 26.2166L102.738 26.1227L103.398 26.063L103.406 26.1568C103.338 26.1654 103.586 26.1824 103.475 26.2678ZM103.526 26.1483L103.518 26.0544L103.877 26.0203L103.886 26.1142L103.526 26.1483ZM104.323 26.08L104.314 25.9862C104.374 25.9776 104.46 25.9349 104.571 25.8496C104.751 25.8325 104.846 25.952 104.863 26.0886L104.323 26.08ZM105.342 25.952L105.334 25.8411L105.771 25.8069L105.779 25.9179L105.342 25.952ZM105.951 25.9008C105.942 25.7728 105.994 25.696 106.105 25.6789L106.251 25.8667C106.242 25.8069 106.268 25.7728 106.319 25.7643L106.43 25.9691L105.951 25.9008ZM114.381 24.9109L114.389 24.9023V24.8938C114.389 24.8938 114.381 24.9023 114.381 24.9109ZM114.535 24.7999C114.604 24.7573 114.638 24.7146 114.475 24.689C114.398 24.7743 114.561 24.7999 114.389 24.8085L114.398 24.8853C114.415 24.8682 114.458 24.8426 114.492 24.817L114.398 24.8938V24.9023L114.218 25.1328L114.578 25.0047H114.621L114.604 24.7914L114.535 24.7999ZM115.16 25.2864L115.092 25.2949L115.109 25.5082L115.614 25.4656C115.606 25.329 115.272 25.2864 115.16 25.2864Z" fill="#F9DC3E"/>
</svg>
