<svg width="55" height="45" viewBox="0 0 55 45" fill="none" xmlns="http://www.w3.org/2000/svg">
<g clip-path="url(#clip0_2031_140)">
<path d="M0 6.93934H12.704V10.6758H0V6.93934ZM0 0H12.704V3.73649H0V0ZM22.7929 13.8252H0V17.5617H21.9388C24.3408 17.5617 29.9454 17.615 32.0273 20.9779V18.8962C31.0131 15.5866 28.0242 13.8252 22.7929 13.8252ZM22.846 20.7643H0V24.5008H21.9388C27.2766 24.5008 30.6395 24.7143 32.0273 25.4617V23.8069C30.9596 21.1914 26.4757 20.7643 22.846 20.7643ZM22.7929 38.3793H0V34.6428H21.9388C24.3408 34.6428 29.9454 34.5895 32.0273 31.2266V33.3083C31.0131 36.6179 28.0242 38.3793 22.7929 38.3793ZM22.846 31.4401H0V27.7037H21.9388C27.2766 27.7037 30.6395 27.4901 32.0273 26.7427V28.3975C30.9596 31.0131 26.4757 31.4401 22.846 31.4401ZM37.5786 44.8383H54.3396V42.5428H38.059C36.6177 42.5428 33.2017 42.4896 31.974 40.5144V41.7957C32.5611 43.7706 34.376 44.8383 37.5786 44.8383ZM37.5253 40.6212H54.2863V38.326H38.059C34.8028 38.326 32.7744 38.2192 31.9738 37.7389V38.7531C32.6142 40.3544 35.3367 40.6212 37.5253 40.6212Z" fill="#010101"/>
</g>
<defs>
<clipPath id="clip0_2031_140">
<rect width="54.3478" height="45" fill="white"/>
</clipPath>
</defs>
</svg>
