<svg width="45" height="45" viewBox="0 0 45 45" fill="none" xmlns="http://www.w3.org/2000/svg">
<path d="M13.7225 26.4704C15.9757 26.4704 17.8022 24.6438 17.8022 22.3907C17.8022 20.1376 15.9757 18.311 13.7225 18.311C11.4694 18.311 9.64286 20.1376 9.64286 22.3907C9.64286 24.6438 11.4694 26.4704 13.7225 26.4704ZM4.07967 34.6297C6.33281 34.6297 8.15934 32.8032 8.15934 30.55C8.15934 28.2969 6.33281 26.4704 4.07967 26.4704C1.82653 26.4704 0 28.2969 0 30.55C0 32.8032 1.82653 34.6297 4.07967 34.6297ZM40.9203 34.6297C43.1735 34.6297 45 32.8032 45 30.55C45 28.2969 43.1735 26.4704 40.9203 26.4704C38.6672 26.4704 36.8407 28.2969 36.8407 30.55C36.8407 32.8032 38.6672 34.6297 40.9203 34.6297Z" fill="black"/>
<path d="M27.5213 22.5627C27.3908 21.1997 27.3244 20.0653 26.2803 19.2679C24.9579 18.2582 23.46 18.9134 21.6148 18.2474C19.8018 17.8088 18.457 16.199 18.457 14.2804C18.457 12.0243 20.3164 10.1953 22.6101 10.1953C24.3089 10.1953 25.7695 11.1986 26.4128 12.6356C27.3974 14.5058 26.7575 16.4092 27.9946 17.3679C29.4594 18.5031 31.4343 17.6718 33.6379 18.7474C34.3459 19.0727 34.9452 19.5888 35.3675 20.2284C35.7899 20.8679 36.0352 21.631 36.0352 22.4505C36.0352 24.3692 34.6904 25.9789 32.8773 26.4175C31.0322 27.0835 29.5343 26.4283 28.2119 27.4381C26.7249 28.5735 27.521 30.4732 26.3091 32.4799C25.6212 33.8013 24.223 34.7057 22.6101 34.7057C20.3164 34.7057 18.457 32.8767 18.457 30.6206C18.457 28.9817 19.4382 27.5682 20.8543 26.9175C23.0579 25.8419 25.0327 26.6732 26.4976 25.538C27.3426 24.8831 27.5213 23.8729 27.5213 22.5627Z" fill="#D0021B"/>
</svg>
