<svg width="31" height="45" viewBox="0 0 31 45" fill="none" xmlns="http://www.w3.org/2000/svg">
<g clip-path="url(#clip0_2031_89)">
<path d="M30.5381 8.84351L27.805 41.3805L15.5197 45L3.26827 41.3856L0.538086 8.84351H30.5381Z" fill="#264DE4"/>
<path d="M25.4652 39.3088L27.8008 11.5044H15.5381V42.2335L25.4652 39.3088Z" fill="#2965F1"/>
<path d="M6.79688 23.5737L7.13349 27.5648H15.538V23.5737H6.79688Z" fill="#EBEBEB"/>
<path d="M15.5381 15.4956H15.5251H6.12061L6.46201 19.4868H15.5381V15.4956Z" fill="#EBEBEB"/>
<path d="M15.538 38.0917V33.9393L15.5215 33.9439L11.3388 32.7437L11.0714 29.5605H9.03891H7.30127L7.82744 35.8272L15.5207 38.0968L15.538 38.0917Z" fill="#EBEBEB"/>
<path d="M7.59814 0H12.1469V2.02148H9.50037V4.04297H12.1469V6.06445H7.59814V0Z" fill="black"/>
<path d="M13.0571 0H17.6059V1.75781H14.9593V2.10938H17.6059V6.15234H13.0571V4.30664H15.7037V3.95508H13.0571V0Z" fill="black"/>
<path d="M18.5156 0H23.0644V1.75781H20.4178V2.10938H23.0644V6.15234H18.5156V4.30664H21.1622V3.95508H18.5156V0Z" fill="black"/>
<path d="M20.1496 27.5649L19.7137 32.7412L15.5249 33.9426V38.0949L23.2243 35.8273L23.2808 35.153L24.1633 24.6455L24.2549 23.5738L24.933 15.4956H15.5249V19.4868H20.817L20.4753 23.5738H15.5249V27.5649H20.1496Z" fill="white"/>
</g>
<defs>
<clipPath id="clip0_2031_89">
<rect width="30" height="45" fill="white" transform="translate(0.538086)"/>
</clipPath>
</defs>
</svg>
