<svg width="116" height="45" viewBox="0 0 116 45" fill="none" xmlns="http://www.w3.org/2000/svg">
<g clip-path="url(#clip0_2032_208)">
<path d="M0 0H115.714V38.5714H57.8571V45H32.1429V38.5714H0V0ZM6.42857 32.1429H19.2857V12.8571H25.7143V32.1429H32.1429V6.42857H6.42857V32.1429ZM38.5714 6.42857V38.5714H51.4286V32.1429H64.2857V6.42857H38.5714ZM51.4286 12.8571H57.8571V25.7143H51.4286V12.8571ZM70.7143 6.42857V32.1429H83.5714V12.8571H90V32.1429H96.4286V12.8571H102.857V32.1429H109.286V6.42857H70.7143Z" fill="#CB3837"/>
<path d="M6.42871 32.1428H19.2859V12.857H25.7144V32.1428H32.143V6.42847H6.42871V32.1428Z" fill="white"/>
<path d="M38.5713 6.42847V38.5713H51.4284V32.1428H64.2856V6.42847H38.5713ZM57.857 25.7142H51.4284V12.857H57.857V25.7142Z" fill="white"/>
<path d="M70.7144 6.42847V32.1428H83.5715V12.857H90.0001V32.1428H96.4286V12.857H102.857V32.1428H109.286V6.42847H70.7144Z" fill="white"/>
</g>
<defs>
<clipPath id="clip0_2032_208">
<rect width="115.714" height="45" fill="white"/>
</clipPath>
</defs>
</svg>
