<svg width="58" height="45" viewBox="0 0 58 45" fill="none" xmlns="http://www.w3.org/2000/svg">
<path d="M49.5877 25.8618C47.5938 25.8618 45.8847 26.3717 44.432 27.1217C43.8908 26.0118 43.378 25.0218 43.2641 24.3019C43.1502 23.4619 43.0362 22.952 43.1502 21.932C43.2641 20.9121 43.8338 19.5022 43.8338 19.3822C43.8338 19.2622 43.7199 18.7523 42.552 18.7523C41.3841 18.7523 40.4157 18.9923 40.3017 19.2922C40.1878 19.6222 39.9599 20.3422 39.8175 21.0921C39.6181 22.202 37.5387 26.1017 36.3424 28.1416C35.9436 27.3317 35.6303 26.6417 35.5448 26.0717C35.4309 25.2318 35.3169 24.7218 35.4309 23.7019C35.5448 22.682 36.1145 21.2721 36.1145 21.1521C36.1145 21.0321 36.0005 20.5221 34.8327 20.5221C33.6933 20.5221 32.6963 20.7621 32.5824 21.0621C32.4685 21.3921 32.3545 22.112 32.0982 22.862C31.8703 23.5819 29.0788 30.1215 28.3382 31.8013C27.9679 32.6713 27.6546 33.3612 27.3982 33.8412C27.3982 33.8412 27.3982 33.8712 27.3697 33.9312C27.1703 34.3512 27.0564 34.5611 27.0564 34.5611C26.914 34.8611 26.7431 35.1311 26.6576 35.1311C26.6007 35.1311 26.4867 34.3512 26.6861 33.2712C27.1134 30.9914 28.0819 27.4816 28.0819 27.3617C28.0819 27.3017 28.2812 26.6717 27.4267 26.3717C26.6291 26.0417 26.3158 26.5817 26.2588 26.5817C26.2019 26.5817 26.1449 26.7617 26.1449 26.7617C26.1449 26.7617 27.0564 22.802 24.4073 22.802C22.7552 22.802 20.505 24.6918 19.3656 26.4017C18.6535 26.8217 17.1438 27.6616 15.5487 28.5916C14.922 28.9515 14.2953 29.3115 13.6972 29.6415C13.6687 29.6115 13.6117 29.5515 13.5832 29.4915C10.4499 25.9218 4.55363 23.4019 4.80999 18.5723C4.89544 16.8324 5.46513 12.2127 16.1183 6.63314C24.8916 2.07346 31.8418 3.33337 33.0666 6.15317C34.8042 10.1429 29.3352 17.5524 20.2771 18.6323C16.8305 19.0522 15.0075 17.6423 14.5517 17.1024C14.0675 16.5624 14.0105 16.5324 13.8111 16.6224C13.5263 16.7724 13.6972 17.2824 13.8111 17.5524C14.0675 18.3023 15.2068 19.6222 17.0868 20.2522C18.7389 20.8221 22.8122 21.1521 27.7116 19.1422C33.2091 16.8924 37.4817 10.6828 36.2284 5.49322C34.9466 0.213596 26.6291 -1.52628 18.7389 1.44351C14.0675 3.18338 8.96873 5.97318 5.32271 9.54293C0.99306 13.8026 0.309431 17.5224 0.594277 19.0822C1.59124 24.6019 8.82631 28.2016 11.7317 30.8714C11.5893 30.9614 11.4469 31.0214 11.3329 31.1114C9.88023 31.8613 4.38272 34.8911 2.98698 38.1009C1.42033 41.7306 3.24334 44.3404 4.43969 44.7004C8.14268 45.7803 11.9596 43.8305 14.0105 40.6207C16.0614 37.4109 15.805 33.2112 14.865 31.2914C14.865 31.2614 14.8365 31.2614 14.8365 31.2314C15.2068 30.9914 15.6056 30.7514 15.9759 30.5414C16.7165 30.0915 17.4571 29.6415 18.0553 29.3115C17.7135 30.3314 17.4286 31.5614 17.3147 33.3012C17.1723 35.3711 17.9698 38.0409 19.0238 39.0908C19.4795 39.5408 20.0492 39.5708 20.391 39.5708C21.6159 39.5708 22.1571 38.4909 22.7837 37.2309C23.5243 35.6711 24.208 33.8712 24.208 33.8712C24.208 33.8712 23.3534 38.7608 25.6607 38.7608C26.4867 38.7608 27.3413 37.6209 27.7116 37.051C27.7116 37.051 27.74 37.021 27.7685 36.931C27.854 36.781 27.9109 36.691 27.9109 36.691C27.9109 36.691 27.9109 36.691 27.9109 36.661C28.2528 36.061 28.9934 34.6511 30.1043 32.3413C31.5285 29.3715 32.9242 25.6218 32.9242 25.6218C32.9242 25.6218 33.0382 26.5217 33.4654 28.0516C33.7218 28.9515 34.2345 29.9115 34.6618 30.8714C34.32 31.3514 34.1206 31.6513 34.1206 31.6513C33.8642 32.0113 33.5509 32.4313 33.2376 32.8213C32.0982 34.2312 30.7594 35.881 30.56 36.361C30.3321 36.931 30.3891 37.3209 30.8164 37.6509C31.1297 37.8909 31.6709 37.9209 32.2121 37.8909C33.2375 37.8009 33.9497 37.5609 34.2915 37.3809C34.8327 37.171 35.4878 36.841 36.086 36.391C37.1969 35.5211 37.8805 34.2912 37.8236 32.6413C37.7951 31.7413 37.5102 30.8414 37.1684 30.0015C37.2824 29.8515 37.3678 29.7015 37.4817 29.5515C39.2478 26.8517 40.615 23.8819 40.615 23.8819C40.615 23.8819 40.729 24.7818 41.1563 26.3117C41.3556 27.0917 41.7829 27.9016 42.1532 28.7116C40.5011 30.1215 39.4757 31.7713 39.1054 32.8513C38.4502 34.8311 38.9629 35.7311 39.9314 35.941C40.3587 36.031 40.9853 35.821 41.4411 35.6111C42.0108 35.4011 42.7229 35.0711 43.378 34.5611C44.4889 33.6912 45.5714 32.4913 45.5144 30.8714C45.4859 30.1215 45.2865 29.4015 45.0301 28.6816C46.4259 28.0816 48.2489 27.7216 50.5561 28.0216C55.5125 28.6216 56.4809 31.8913 56.31 33.2712C56.1106 34.6511 55.0852 35.4011 54.7434 35.6111C54.4016 35.851 54.2876 35.911 54.3161 36.091C54.3446 36.331 54.5155 36.331 54.8288 36.271C55.2276 36.181 57.4209 35.1611 57.5349 32.6413C57.6488 29.3415 54.7434 25.8318 49.5877 25.8618ZM11.3899 39.4208C9.73781 41.3107 7.45905 42.0306 6.46209 41.4007C5.40816 40.7407 5.80695 37.9809 7.82935 35.971C9.05418 34.7411 10.6493 33.6312 11.7032 32.9413C11.9311 32.7913 12.3014 32.5813 12.7287 32.2813C12.8141 32.2513 12.8426 32.2213 12.8426 32.2213C12.9281 32.1613 13.0135 32.1013 13.099 32.0713C13.8111 34.9511 13.099 37.4409 11.3899 39.4208ZM23.3534 30.8714C22.7837 32.3413 21.5874 36.091 20.8468 35.881C20.2201 35.7011 19.8498 32.8513 20.7328 30.0315C21.1886 28.6216 22.1286 26.9417 22.6698 26.2817C23.5528 25.2318 24.5498 24.8718 24.8061 25.2918C25.091 25.8618 23.6952 29.9415 23.3534 30.8714ZM33.2376 35.851C33.0097 35.971 32.7818 36.061 32.6679 36.001C32.5824 35.971 32.7818 35.7911 32.7818 35.7911C32.7818 35.7911 34.0066 34.3812 34.5194 33.7512C34.8042 33.3912 35.146 32.9413 35.4878 32.4613C35.4878 32.4913 35.4878 32.5513 35.4878 32.6113C35.4593 34.2612 33.9212 35.3711 33.2376 35.851ZM40.8429 34.0212C40.672 33.9012 40.7005 33.4512 41.2987 32.0713C41.5266 31.5314 42.0678 30.6314 43.0077 29.7615C43.1217 30.1215 43.1787 30.4514 43.1787 30.7814C43.1502 32.8813 41.6975 33.6912 40.8429 34.0212Z" fill="#CB6797"/>
</svg>
