<svg width="46" height="45" viewBox="0 0 46 45" fill="none" xmlns="http://www.w3.org/2000/svg">
<g clip-path="url(#clip0_2031_102)">
<path d="M0.538086 39.1977C0.538086 42.4026 3.13587 45 6.34041 45H39.7358C42.9407 45 45.5381 42.4022 45.5381 39.1977V5.80232C45.5381 2.59744 42.9403 0 39.7358 0H6.34041C3.13552 0 0.538086 2.59779 0.538086 5.80232V39.1977Z" fill="#563D7C"/>
<path d="M18.5292 20.0282V13.6555H24.1387C24.6729 13.6555 25.1881 13.7 25.6841 13.7891C26.1802 13.8781 26.619 14.0371 27.0006 14.2661C27.3822 14.495 27.6875 14.813 27.9165 15.22C28.1454 15.6271 28.2599 16.1486 28.2599 16.7846C28.2599 17.9294 27.9165 18.7562 27.2296 19.265C26.5427 19.7738 25.6651 20.0282 24.5966 20.0282H18.5292ZM12.5381 9V36.2461H25.7414C26.9625 36.2461 28.1518 36.0935 29.3093 35.7882C30.4668 35.4829 31.4971 35.0123 32.4003 34.3763C33.3034 33.7403 34.022 32.9198 34.5563 31.915C35.0905 30.9101 35.3576 29.7208 35.3576 28.347C35.3576 26.6425 34.9442 25.1861 34.1174 23.9777C33.2906 22.7693 32.0377 21.9235 30.3587 21.4401C31.5798 20.855 32.502 20.1045 33.1253 19.1887C33.7486 18.2728 34.0602 17.128 34.0602 15.7543C34.0602 14.4823 33.8503 13.4138 33.4306 12.5489C33.0108 11.6839 32.4193 10.9907 31.6561 10.4692C30.8929 9.94763 29.9771 9.5724 28.9086 9.34344C27.8402 9.11448 26.6572 9 25.3598 9H12.5381ZM18.5292 31.5906V24.1113H25.0545C26.3519 24.1113 27.395 24.4102 28.1836 25.008C28.9722 25.6059 29.3666 26.6044 29.3666 28.0036C29.3666 28.7159 29.2457 29.301 29.004 29.7589C28.7624 30.2168 28.438 30.5794 28.031 30.8465C27.6239 31.1136 27.1533 31.3044 26.6191 31.4189C26.0848 31.5334 25.5251 31.5906 24.94 31.5906H18.5292Z" fill="white"/>
</g>
<defs>
<clipPath id="clip0_2031_102">
<rect width="45" height="45" fill="white" transform="translate(0.538086)"/>
</clipPath>
</defs>
</svg>
