<svg width="31" height="45" viewBox="0 0 31 45" fill="none" xmlns="http://www.w3.org/2000/svg">
<g clip-path="url(#clip0_2031_77)">
<path d="M3.26921 41.3775L0.538086 8.84253H30.5381L27.807 41.3775L15.5275 45L3.26921 41.3775Z" fill="#E24D26"/>
<path d="M15.5273 42.2326L25.4568 39.3076L27.8068 11.4976H15.5273V42.2326Z" fill="#EF6529"/>
<path d="M15.5276 23.5799H10.5735L10.2347 19.4849H15.5276V15.5024H6.12744L6.21213 16.5599L7.14367 27.5624H15.5276V23.5799Z" fill="#E9E9E9"/>
<path d="M15.5277 33.9299V33.9524L11.3357 32.7374L11.0817 29.5649H9.04923H7.29199L7.82128 35.8199L15.5277 38.0924V33.9299Z" fill="#E9E9E9"/>
<path d="M3.33252 0H5.23795V2.0025H6.97402V0H8.87945V6.075H6.97402V4.05H5.23795V6.075H3.33252V0Z" fill="black"/>
<path d="M11.3991 2.0025H9.72656V0H14.9983V2.0025H13.3257V6.0525H11.4203L11.3991 2.0025Z" fill="black"/>
<path d="M15.8237 0H17.8139L19.0418 2.1375L20.2697 0H22.2599V6.075H20.3544V3.06L19.0418 5.22H18.9995L17.6868 3.06V6.075H15.8237V0Z" fill="black"/>
<path d="M23.2129 0H25.1183V4.0725H27.8071V6.075H23.2129V0Z" fill="black"/>
<path d="M15.5273 23.5801V27.5626H20.1427L19.7193 32.7376L15.5273 33.9526V38.0926L23.2338 35.8201L23.2761 35.1451L24.1653 24.6376L24.25 23.5801H23.2338H15.5273Z" fill="white"/>
<path d="M15.5273 15.5024V17.9774V19.4849H24.5887L24.6734 18.5849L24.8428 16.5599L24.9275 15.5024H15.5273Z" fill="white"/>
</g>
<defs>
<clipPath id="clip0_2031_77">
<rect width="30" height="45" fill="white" transform="translate(0.538086)"/>
</clipPath>
</defs>
</svg>
