<svg width="46" height="45" viewBox="0 0 46 45" fill="none" xmlns="http://www.w3.org/2000/svg">
<g clip-path="url(#clip0_2031_144)">
<path d="M23.0353 0C10.6125 0 0.538099 10.1137 0.538099 22.59C0.533023 27.325 2.01611 31.9418 4.77775 35.788C7.53939 39.6342 11.4399 42.5153 15.9281 44.0241C17.0531 44.2322 17.4637 43.5347 17.4637 42.9356C17.4637 42.3984 17.444 40.9781 17.4328 39.0938C11.175 40.4578 9.8531 36.0647 9.8531 36.0647C8.83216 33.4547 7.3556 32.76 7.3556 32.76C5.31091 31.3594 7.50747 31.3875 7.50747 31.3875C9.76591 31.5478 10.9528 33.7163 10.9528 33.7163C12.9609 37.1672 16.2206 36.1716 17.5031 35.5922C17.7056 34.1325 18.2878 33.1369 18.9318 32.5716C13.9368 32.0006 8.6831 30.0628 8.6831 21.4088C8.6831 18.9422 9.5606 16.9256 11.0006 15.345C10.7672 14.7741 9.99654 12.4763 11.22 9.36844C11.22 9.36844 13.11 8.76094 17.4075 11.6831C19.2433 11.1814 21.1377 10.926 23.0409 10.9237C24.9442 10.9275 26.8385 11.1838 28.6743 11.6859C32.969 8.76375 34.8562 9.37125 34.8562 9.37125C36.0825 12.4819 35.3118 14.7769 35.0812 15.3478C36.524 16.9284 37.3931 18.945 37.3931 21.4116C37.3931 30.0881 32.1337 31.9978 27.1218 32.5575C27.929 33.255 28.649 34.6331 28.649 36.7397C28.649 39.7603 28.6209 42.1959 28.6209 42.9356C28.6209 43.5403 29.0259 44.2434 30.1678 44.0213C34.6516 42.5089 38.5473 39.6268 41.3051 35.7815C44.0629 31.9362 45.5435 27.322 45.5381 22.59C45.5381 10.1137 35.4637 0 23.0353 0Z" fill="black"/>
</g>
<defs>
<clipPath id="clip0_2031_144">
<rect width="45" height="45" fill="white" transform="translate(0.538086)"/>
</clipPath>
</defs>
</svg>
