<svg width="47" height="45" viewBox="0 0 47 45" fill="none" xmlns="http://www.w3.org/2000/svg">
<g clip-path="url(#clip0_2032_162)">
<path d="M8.17308 0H37.9808C42.5 0 46.1538 3.65385 46.1538 8.17308V36.8269C46.1538 41.3462 42.5 45 37.9808 45H8.17308C3.65385 45 0 41.3462 0 36.8269V8.17308C0 3.65385 3.65385 0 8.17308 0Z" fill="#470137"/>
<path d="M24.2691 11.8268L18.4999 21.346L24.6538 31.4422C24.6922 31.5191 24.7115 31.596 24.6922 31.6729C24.673 31.7499 24.5961 31.6922 24.4807 31.7114H20.0768C19.7691 31.7114 19.5576 31.6922 19.423 31.4999C19.0191 30.6922 18.5961 29.9037 18.1922 29.096C17.7884 28.3076 17.3461 27.4999 16.8845 26.6729C16.423 25.846 15.9615 25.0191 15.4999 24.1729H15.4615C15.0576 24.9999 14.6153 25.8268 14.173 26.6537C13.7307 27.4806 13.2884 28.3076 12.8653 29.1153C12.423 29.9229 11.9807 30.7499 11.5384 31.5383C11.4615 31.7306 11.3076 31.7499 11.0961 31.7499H6.8653C6.78838 31.7499 6.73069 31.7883 6.73069 31.6922C6.71146 31.6153 6.73069 31.5383 6.76915 31.4806L12.7499 21.6729L6.923 11.8076C6.8653 11.7306 6.84607 11.6537 6.88453 11.6153C6.923 11.5576 6.99992 11.5383 7.07684 11.5383H11.4422C11.5384 11.5383 11.6345 11.5576 11.7115 11.5768C11.7884 11.6153 11.8461 11.6729 11.9038 11.7499C12.2692 12.5768 12.6922 13.4037 13.1345 14.2306C13.5961 15.0576 14.0384 15.8653 14.5191 16.6729C14.9807 17.4806 15.4038 18.2883 15.8076 19.1153H15.8461C16.2499 18.2691 16.673 17.4422 17.0961 16.6345C17.5191 15.8268 17.9615 15.0191 18.4038 14.2114C18.8461 13.4037 19.2691 12.5768 19.6922 11.7883C19.7115 11.7114 19.7499 11.6345 19.8076 11.596C19.8845 11.5576 19.9615 11.5383 20.0576 11.5576H24.1153C24.2115 11.5383 24.3076 11.596 24.3268 11.6922C24.3461 11.7114 24.3076 11.7883 24.2691 11.8268Z" fill="#FF61F6"/>
<path d="M33.154 32.1153C31.7309 32.1345 30.3078 31.8461 29.0194 31.2499C27.8078 30.6922 26.8079 29.7691 26.1155 28.6345C25.404 27.4614 25.0579 25.9999 25.0579 24.2499C25.0386 22.8268 25.404 21.423 26.1155 20.1922C26.8463 18.9422 27.904 17.9038 29.1732 17.2114C30.5194 16.4614 32.1348 16.0961 34.0386 16.0961C34.1348 16.0961 34.2694 16.0961 34.4425 16.1153C34.6155 16.1345 34.8078 16.1345 35.0386 16.1538V10.0768C35.0386 9.94222 35.0963 9.86529 35.2309 9.86529H39.1348C39.2309 9.84606 39.3079 9.92299 39.3271 9.99991C39.3271 10.0191 39.3271 10.0384 39.3271 10.0384V28.3461C39.3271 28.6922 39.3463 29.0768 39.3655 29.4999C39.404 29.9038 39.4232 30.2884 39.4425 30.6153C39.4425 30.7499 39.3848 30.8653 39.2502 30.923C38.2502 31.3461 37.1925 31.6538 36.1155 31.8461C35.1348 32.0191 34.154 32.1153 33.154 32.1153ZM35.0386 28.2691V19.8076C34.8655 19.7691 34.6925 19.7307 34.5194 19.7114C34.3078 19.6922 34.0963 19.673 33.8848 19.673C33.1348 19.673 32.3848 19.8268 31.7117 20.173C31.0578 20.4999 30.5002 20.9807 30.0771 21.5961C29.654 22.2114 29.4425 23.0384 29.4425 24.0384C29.4232 24.7114 29.5386 25.3845 29.7694 26.0191C29.9617 26.5384 30.2502 26.9999 30.6348 27.3845C31.0002 27.7307 31.4425 27.9999 31.9425 28.1538C32.4617 28.3268 33.0002 28.4038 33.5386 28.4038C33.8271 28.4038 34.0963 28.3845 34.3463 28.3653C34.5963 28.3845 34.8078 28.3461 35.0386 28.2691Z" fill="#FF61F6"/>
</g>
<defs>
<clipPath id="clip0_2032_162">
<rect width="46.1538" height="45" fill="white"/>
</clipPath>
</defs>
</svg>
