<svg width="48" height="45" viewBox="0 0 48 45" fill="none" xmlns="http://www.w3.org/2000/svg">
<g clip-path="url(#clip0_2032_230)">
<path d="M32.7111 31.3025C34.4533 31.1221 35.7749 29.6203 35.7148 27.8178C35.6549 26.0156 34.1529 24.5736 32.3506 24.5736H32.2306C30.368 24.6338 28.9263 26.1957 28.9864 28.0581C29.0465 28.9593 29.4068 29.7403 29.9475 30.281C27.905 34.3063 24.7811 37.2501 20.0952 39.7133C16.9111 41.3955 13.607 41.9963 10.3029 41.5759C7.59942 41.2153 5.49676 40.0139 4.17489 38.0311C2.25259 35.0873 2.07242 31.9031 3.6945 28.719C4.83601 26.436 6.63808 24.7538 7.77959 23.9127C7.5393 23.1317 7.17878 21.8101 6.99861 20.8489C-1.71245 27.1571 -0.811229 35.6881 1.83213 39.7133C3.81455 42.7174 7.83971 44.5797 12.2853 44.5797C13.4868 44.5797 14.6882 44.4595 15.8898 44.1593C23.5796 42.6572 29.407 38.0912 32.7111 31.3025ZM43.2846 23.8528C38.7187 18.5058 31.9903 15.562 24.3005 15.562H23.3393C22.7986 14.4806 21.6571 13.7596 20.3956 13.7596H20.2753C18.4131 13.8197 16.9714 15.3816 17.0313 17.2442C17.0915 19.0465 18.5933 20.4884 20.3956 20.4884H20.5156C21.8373 20.4283 22.9788 19.5872 23.4594 18.4456H24.5408C29.1066 18.4456 33.432 19.7673 37.3371 22.3507C40.3408 24.3334 42.5036 26.9168 43.705 30.0407C44.7263 32.564 44.6662 35.0272 43.5848 37.1301C41.9028 40.3141 39.0792 42.0564 35.3545 42.0564C32.9514 42.0564 30.6686 41.3354 29.467 40.7947C28.8062 41.3955 27.6046 42.3567 26.7635 42.9577C29.3469 44.1591 31.9903 44.82 34.5134 44.82C40.2807 44.82 44.5461 41.6358 46.1682 38.4517C47.9103 34.9671 47.7901 28.9593 43.2846 23.8528ZM12.7659 32.3236C12.826 34.126 14.3279 35.5677 16.1301 35.5677H16.2504C18.1127 35.5078 19.5545 33.9456 19.4943 32.0833C19.4344 30.2808 17.9324 28.8391 16.1301 28.8391H16.0101C15.8898 28.8391 15.7095 28.8391 15.5896 28.899C13.1264 24.8138 12.1052 20.3681 12.4657 15.5618C12.7058 11.9571 13.9074 8.833 16.0101 6.24958C17.7522 4.02668 21.1164 2.94529 23.3994 2.88535C29.7674 2.76512 32.4707 10.6954 32.651 13.8796C33.432 14.0598 34.7537 14.4804 35.6549 14.7808C34.9338 5.04832 28.9263 0.00170898 23.1592 0.00170898C17.7522 0.00170898 12.7659 3.90681 10.7833 9.67429C8.01988 17.3643 9.82213 24.7538 13.1864 30.5814C12.8861 31.0019 12.7058 31.6626 12.7659 32.3236Z" fill="#764ABC"/>
</g>
<defs>
<clipPath id="clip0_2032_230">
<rect width="47.2094" height="45" fill="white"/>
</clipPath>
</defs>
</svg>
